<?xml version="1.0" standalone="no"?>
<!DOCTYPE svg PUBLIC "-//W3C//DTD SVG 1.1//EN" "http://www.w3.org/Graphics/SVG/1.1/DTD/svg11.dtd" >
<svg xmlns="http://www.w3.org/2000/svg">
<metadata>Generated by IcoMoon</metadata>
<defs>
<font id="mi-gran-dia_icons" horiz-adv-x="1024">
<font-face units-per-em="1024" ascent="960" descent="-64" />
<missing-glyph horiz-adv-x="1024" />
<glyph unicode="&#x20;" horiz-adv-x="512" d="" />
<glyph unicode="&#xe900;" glyph-name="catering" d="M475.65 551.655c-5.384-5.384-5.384-13.46 0-18.844 2.692-2.692 5.384-2.692 10.768-2.692s8.075 0 10.768 2.692c29.613 29.613 16.152 72.689 0 113.064s-29.613 80.764 0 107.686c5.384 5.384 5.384 13.46 0 18.844s-13.46 5.384-18.844 0c-40.382-40.382-21.538-94.23-5.384-137.3 10.768-40.382 18.844-67.303 2.692-83.457zM268.356 551.655c-5.384-5.384-5.384-13.46 0-18.844 2.692-2.692 5.384-2.692 10.768-2.692s8.075 0 10.768 2.692c29.613 29.613 16.152 72.689 0 113.064s-29.613 80.764 0 107.686c5.384 5.384 5.384 13.46 0 18.844s-13.46 5.384-18.844 0c-40.382-40.382-21.538-94.23-5.384-137.3 10.768-40.382 18.844-67.303 2.692-83.457zM365.277 627.029c-5.384-5.384-5.384-13.46 0-18.844 2.692-2.692 5.384-2.692 10.768-2.692s8.075 0 10.768 2.692c29.613 29.613 16.152 72.689 0 113.064s-29.613 80.764 0 107.686c5.384 5.384 5.384 13.46 0 18.844s-13.46 5.384-18.844 0c-40.382-40.382-21.538-94.23-5.384-137.3 13.46-40.382 21.538-67.303 2.692-83.457zM489.115 414.355l-13.46-24.23c64.611-32.306 67.303-148.069 67.303-161.53v-13.46h88.841l-2.692 16.152c-18.844 80.764-69.995 145.376-139.992 183.065zM569.88 242.056c0 18.844-2.692 51.151-13.46 83.457 18.844-24.23 34.998-53.843 43.071-83.457h-29.613zM9.909 42.832h721.495v80.764h-721.495v-80.764zM36.834 96.674h667.653v-26.915h-667.653v26.915zM903.707 158.595l110.379 110.379-51.151 231.525h-150.761l-45.767-231.525 110.379-110.379v-88.841h-51.151v-26.915h126.532v26.915h-48.459v88.841zM812.174 355.12l26.915 118.454h107.686l34.998-158.836-169.605 40.382zM704.487 172.061c0 166.913-123.84 306.905-285.362 328.443 0 2.692 0 2.692 0 5.384 0 26.915-21.538 48.459-48.459 48.459s-48.459-21.538-48.459-48.459c0-2.692 0-2.692 0-5.384-161.53-24.23-285.362-161.53-285.362-328.443v-13.46h667.653v13.46zM373.346 527.419c10.768 0 21.538-10.768 21.538-21.538 0 0 0 0 0-2.692-8.075 0-13.46 0-21.538 0s-13.46 0-21.538 0c0 0 0 0 0 2.692 0 13.46 8.075 21.538 21.538 21.538zM66.447 185.516c8.075 161.53 142.684 293.444 306.905 293.444s298.828-129.22 306.905-293.444h-613.81z" />
<glyph unicode="&#xe901;" glyph-name="decoracion" d="M1014.268 532.218c-2.158 6.478-8.639 8.639-15.116 6.478-101.493-43.188-287.207-69.102-490.196-69.102-200.828 0-388.7 25.914-490.196 69.102-6.478 2.158-10.797 0-15.116-6.478-2.158-6.478 0-10.797 6.478-15.116 12.955-6.478 30.233-10.797 47.508-17.275l47.508-144.684c2.158-4.319 4.319-6.478 8.639-6.478 0 0 2.158 0 2.158 0 2.158 0 6.478 2.158 8.639 4.319l86.376 101.493 51.827-114.451c2.158-4.319 4.319-6.478 8.639-6.478 0 0 0 0 0 0 4.319 0 6.478 2.158 8.639 4.319l75.579 105.812 60.466-114.451c2.158-4.319 4.319-6.478 8.639-6.478v0c4.319 0 6.478 2.158 8.639 4.319l71.263 112.29 62.624-110.132c2.158-4.319 6.478-6.478 8.639-6.478s6.478 2.158 8.639 6.478l64.782 112.29 71.263-103.654c2.158-2.158 4.319-4.319 8.639-4.319 0 0 0 0 0 0 4.319 0 6.478 2.158 8.639 6.478l60.466 129.568c0 0 0 0 0 0l92.857-101.493c2.158-2.158 4.319-4.319 8.639-4.319 0 0 2.158 0 2.158 0 4.319 0 6.478 4.319 8.639 6.478l43.188 131.726c17.275 4.319 32.391 10.797 47.508 17.275 10.797 2.158 15.116 8.639 12.955 12.955zM122.417 381.056l-36.711 112.29c34.552-8.639 71.263-17.275 114.451-23.755l-77.741-88.538zM426.898 355.143l-51.827 97.176c36.711-2.158 73.421-4.319 110.132-4.319l-58.305-92.857zM733.538 365.94l-60.466 88.538c36.711 2.158 73.421 6.478 107.974 10.797l-47.508-99.335z" />
<glyph unicode="&#xe902;" glyph-name="dulcerias" d="M987.932 790.809c-20.64 6.879-34.401 30.961-27.522 48.162 10.321 27.522 0 41.282-6.879 48.162s-20.64 17.2-48.162 6.879c-20.64-6.879-41.282 6.879-48.162 27.522-10.321 24.079-24.079 27.522-34.401 27.522-20.64 0-41.282-17.2-55.040-48.162l-34.401-68.801c-51.601 30.961-89.441 41.282-92.884 44.722l-10.321 3.439-550.415-550.415 3.439-10.321c0-3.439 13.761-41.282 44.722-92.884l-68.801-34.401c-30.961-17.2-48.162-34.401-48.162-55.040 0-10.321 3.439-24.079 27.522-34.401 20.64-6.879 34.401-30.961 27.522-48.162-10.321-27.522 0-41.282 6.879-48.162s20.64-17.2 48.162-6.879c20.64 6.879 41.282-6.879 48.162-27.522 10.321-24.079 24.079-27.522 34.401-27.522 0 0 0 0 3.439 0 20.64 0 37.84 17.2 55.040 48.162l34.401 68.801c48.162-27.522 86.002-41.282 86.002-41.282l10.321-3.439 553.855 553.855-3.439 10.321c0 3.439-10.321 37.84-41.282 86.002l68.801 34.401c30.961 17.2 48.162 34.401 48.162 55.040 0 10.321-6.879 24.079-30.961 34.401zM231.113 6.468c-10.321-24.079-20.64-27.522-24.079-27.522 0 0-3.439 0-3.439 6.879-13.761 37.84-55.040 58.482-92.884 48.162-6.879-3.439-13.761-3.439-13.761 0 0 0 0 3.439 0 13.761 13.761 37.84-6.879 79.123-48.162 92.884-3.439 0-6.879 3.439-6.879 3.439 0 3.439 6.879 13.761 27.522 24.079l72.241 34.401c10.321-17.2 24.079-30.961 37.84-48.162l-48.162-27.522 17.2-30.961 41.282 20.64-6.879-65.362 34.401-3.439 6.879 61.922c13.761-13.761 27.522-24.079 41.282-30.961l-34.401-72.241zM382.477 54.63c-24.079 10.321-96.323 37.84-161.685 103.202s-96.323 134.163-103.202 161.685l24.079 24.079h529.773l-288.968-288.968zM705.846 377.998h-529.773l141.044 141.044h529.773l-141.044-141.044zM905.37 577.523l-24.079-24.079h-529.773l288.968 288.968c24.079-10.321 96.323-37.84 161.685-103.202s96.323-137.603 103.202-161.685zM953.532 732.326l-72.241-34.401c-10.321 13.761-20.64 27.522-30.961 41.282l61.922 6.879-3.439 34.401-65.362-6.879 20.64 41.282-30.961 17.2-27.522-48.162c-17.2 13.761-30.961 27.522-48.162 37.84l34.401 72.241c10.321 24.079 20.64 27.522 24.079 27.522 0 0 3.439 0 3.439-6.879 13.761-37.84 55.040-58.482 92.884-48.162 10.321 3.439 13.761 3.439 13.761 0 0 0 0-3.439 0-13.761-13.761-37.84 6.879-79.123 48.162-92.884 3.439 0 6.879-3.439 6.879-3.439v0c3.439-3.439-3.439-13.761-27.522-24.079z" />
<glyph unicode="&#xe903;" glyph-name="entretenimiento" d="M296.779 803.255l22.378 41.967 41.967 22.378-41.967 22.378-22.378 44.755-22.378-41.967-41.967-22.378 41.967-22.378 22.378-44.755zM293.983 873.176l2.788 5.6 2.788-5.6 5.6-2.788-5.6-2.788-2.788-5.6-2.788 5.6-5.6 2.788 5.6 2.788zM1001.688 842.41v0c0 0 0 0 0 0-2.788 13.989-11.201 22.378-19.589 27.978-11.201 5.6-22.378 8.389-33.579 5.6l-335.665-78.334c-5.6-2.788-13.989-5.6-16.777-8.389l-207-47.544c-11.201-2.788-19.589-8.389-25.166-16.777s-8.389-19.589-5.6-30.766c2.788-11.201 8.389-19.589 16.777-25.166 5.6-2.788 13.989-5.6 22.378-5.6 2.788 0 5.6 0 8.389 0l207 47.544c2.788 0 5.6-2.788 11.201-2.788 2.788 0 5.6 0 11.201 0l335.665 78.334c11.201 2.788 22.378 8.389 27.978 19.589 5.6 13.989 5.6 25.166 2.788 36.367zM400.278 691.366c-2.788 0-5.6 0-8.389 2.788s-5.6 5.6-5.6 8.389c0 2.788 0 5.6 2.788 8.389s5.6 5.6 8.389 5.6l181.81 41.967c0-2.788 0-8.389 0-11.201s2.788-8.389 5.6-11.201l-184.622-44.755zM973.709 828.421c-2.788-2.788-5.6-5.6-8.389-5.6l-352.443-83.91c-2.788 2.788-5.6 5.6-8.389 11.201 0 5.6 0 8.389 2.788 13.989l352.443 81.122c0 0 2.788 0 2.788 0 5.6 0 11.201-2.788 11.201-8.389v0c0 0 0 0 0 0 0-2.788 0-2.788 0-5.6 2.788 0 0-2.788 0-2.788zM260.412 573.877l22.378 41.967 41.967 22.378-41.967 22.378-22.378 41.967-22.378-41.967-41.967-22.378 41.967-22.378 22.378-41.967zM257.624 641.011l2.788 5.6 2.788-5.6 5.6-2.788-5.6-2.788-2.788-5.6-2.788 5.6-5.6 2.788 5.6 2.788zM640.832 599.043l41.967 22.378-41.967 22.378-22.378 41.967-22.378-41.967-41.967-22.378 41.967-22.378 22.378-41.967 22.378 41.967zM610.066 621.421l5.6 2.788 2.788 5.6 2.788-5.6 5.6-2.788-5.6-2.788-2.788-5.6-2.788 5.6-5.6 2.788zM453.422 559.888c-137.054 0-394.41-19.589-394.41-95.111 0-30.766 44.755-53.144 106.288-67.133v-335.665l2.788-2.788c2.788-2.788 64.345-89.511 285.309-89.511 223.777 0 288.122 86.723 288.122 97.899v330.065c61.533 13.989 106.288 36.367 106.288 67.133 0 72.733-257.355 95.111-394.41 95.111zM713.566 70.368c-13.989-13.989-78.334-72.733-260.144-72.733s-246.155 58.744-260.144 72.733v321.676c83.91-16.777 187.41-22.378 260.144-22.378 69.921 0 176.233 5.6 260.144 22.378v-321.676zM453.422 397.644c-237.766 0-366.432 44.755-366.432 67.133s128.666 67.133 366.432 67.133c237.766 0 366.432-44.755 366.432-67.133s-128.666-67.133-366.432-67.133zM453.422 512.345c-114.677 0-310.499-5.6-310.499-50.356 0-41.967 193.011-50.356 310.499-50.356s310.499 5.6 310.499 50.356c0 44.755-193.011 50.356-310.499 50.356zM453.422 442.4c-139.867 0-234.978 11.201-271.344 22.378 36.367 11.201 131.478 22.378 271.344 22.378s234.978-11.201 271.344-22.378c-36.367-11.201-131.478-22.378-271.344-22.378z" />
<glyph unicode="&#xe904;" glyph-name="florerias" d="M742.255 235.481c-3.437 3.437-6.872 6.872-13.747 3.437-6.872 0-140.903-6.872-195.89-61.86-13.747-13.747-27.494-37.802-37.802-58.424v329.919c134.029 10.311 237.13 120.282 237.13 254.313v213.072c0 0 0 0 0 0s0 3.437 0 3.437c0 0 0 3.437 0 3.437s0 0 0 3.437c0 0 0 3.437-3.437 3.437 0 0 0 0 0 0s0 0-3.437 0c0 0-3.437 0-3.437 3.437 0 0-3.437 0-3.437 0s0 0-3.437 0c0 0 0 0 0 0s-3.437 0-3.437 0c0 0-3.437 0-3.437 0s0 0-3.437 0c0 0-3.437 0-3.437-3.437 0 0 0 0 0 0l-103.099-116.846-109.973 116.846c-3.437 3.437-6.872 6.872-13.747 6.872s-10.311-3.437-13.747-6.872l-109.973-116.846-99.663 113.41c-3.437 3.437-6.872 6.872-13.747 6.872 0 0 0 0 0 0s0 0 0 0 0 0 0 0c-3.437 0-6.872 0-10.311-3.437s-6.872-10.311-3.437-17.183v-206.2c0-89.352 48.113-168.395 120.282-216.509 0 0 0 0 0 0 3.437 0 3.437-3.437 6.872-3.437 34.367-20.619 72.169-30.93 113.41-34.367v-329.919c-10.311 24.056-20.619 44.677-37.802 61.86-54.986 54.986-189.017 61.86-195.89 61.86-3.437 0-10.311 0-13.747-3.437s-6.872-6.872-3.437-13.747c0-6.872 6.872-140.903 61.86-195.89s195.89-72.169 202.762-72.169c0 0 0 0 0 0s0 0 0 0c6.872 0 147.776 13.747 202.762 72.169 54.986 54.986 61.86 189.017 61.86 195.89 3.437 0 3.437 3.437 0 6.872zM295.491 49.903c-34.367 34.367-48.113 116.846-51.55 154.649 37.802-3.437 116.846-17.183 154.649-51.55 34.367-34.367 51.55-113.41 58.424-161.523-44.677 6.872-127.156 27.494-161.523 58.424zM477.633 888.446l99.663-106.537-99.663-113.41-99.663 113.41 99.663 106.537zM257.687 702.867v164.959l85.916-96.227c0 0 0 0 0 0l113.41-130.593-106.537-120.282c-54.986 41.241-92.79 106.537-92.79 182.142zM477.633 482.921c-34.367 0-68.732 6.872-96.227 24.056l233.692 268.059c0 0 0 0 0 0l85.916 96.227v-168.395c-3.437-123.721-99.663-219.945-223.383-219.945zM659.776 49.903c-34.367-34.367-113.41-51.55-161.523-58.424 6.872 48.113 24.056 127.156 58.424 161.523s116.846 48.113 154.649 51.55c-6.872-44.677-20.619-120.282-51.55-154.649z" />
<glyph unicode="&#xe905;" glyph-name="fotografia" d="M515.687 573.371c-84.81 0-154.872-70.060-154.872-154.872s70.060-154.872 154.872-154.872c84.81 0 154.872 70.060 154.872 154.872s-70.060 154.872-154.872 154.872zM515.687 300.505c-66.374 0-117.998 51.624-117.998 117.998s51.624 117.998 117.998 117.998c66.374 0 117.998-51.624 117.998-117.998s-51.624-117.998-117.998-117.998zM854.93 680.306c-33.187 0-62.687-25.811-62.687-62.687 0-33.187 25.811-62.687 62.687-62.687s62.687 25.811 62.687 62.687c-3.687 36.874-29.5 62.687-62.687 62.687zM854.93 595.495c-14.75 0-25.811 11.063-25.811 25.811s11.063 25.811 25.811 25.811 25.811-11.063 25.811-25.811c-3.687-14.75-14.75-25.811-25.811-25.811zM515.687 691.369c-151.185 0-272.869-121.684-272.869-272.869s121.684-272.869 272.869-272.869c151.185 0 272.869 121.684 272.869 272.869s-121.684 272.869-272.869 272.869zM515.687 182.507c-129.059 0-235.993 106.934-235.993 235.993s106.934 235.993 235.993 235.993c129.059 0 235.993-106.934 235.993-235.993s-106.934-235.993-235.993-235.993zM902.864 768.803h-553.112v58.997h-136.434v-58.997h-84.81c-62.687 0-114.311-51.624-114.311-114.311v-475.675c0-62.687 51.624-114.311 114.311-114.311h774.354c62.687 0 114.311 51.624 114.311 114.311v475.675c0 62.687-51.624 114.311-114.311 114.311zM250.194 790.93h62.687v-22.124h-62.687v22.124zM980.301 182.507c0-40.561-33.187-77.435-77.435-77.435h-774.354c-40.561 0-77.435 33.187-77.435 77.435v471.988c0 40.561 33.187 77.435 77.435 77.435h774.354c40.561 0 77.435-33.187 77.435-77.435v-471.988z" />
<glyph unicode="&#xe906;" glyph-name="invitaciones" d="M888.107 512l-80.843 63.274v119.505h-147.632l-151.148 119.505-151.148-119.505h-140.6v-115.99l-80.843-63.274-14.063 10.548v-442.886h783.844v439.369l-17.579-10.548zM807.264 533.094l49.211-38.663-49.211-28.116v66.79zM512 772.107l94.906-77.327h-186.295l91.389 77.327zM251.893 659.632h520.222v-217.927l-260.107-158.178-260.107 158.178v217.927zM216.736 533.094v-70.295l-49.211 28.116 49.211 42.18zM156.989 459.274l200.358-123.021-200.358-196.843v319.864zM181.588 114.809l207.379 203.874 123.021-77.327 123.021 77.327 207.379-203.874h-660.823zM870.526 139.41l-200.358 196.843 200.358 123.021v-319.864z" />
<glyph unicode="&#xe907;" glyph-name="joyeria" d="M518.421 560.368c-150.894 0-272.894-122-272.894-272.894s122-272.894 272.894-272.894 272.894 122 272.894 272.894c0 150.894-122 272.894-272.894 272.894zM518.421 46.685c-134.841 0-240.791 109.159-240.791 240.791 0 134.841 109.159 240.791 240.791 240.791s240.791-109.159 240.791-240.791c0-134.841-105.947-240.791-240.791-240.791zM601.894 605.315l144.474 192.632-89.894 138.053h-276.106l-89.894-138.053 144.474-192.632c-141.262-38.526-247.209-163.738-247.209-317.841 0-179.791 147.685-327.474 327.474-327.474s327.474 147.685 327.474 327.474c3.209 154.106-99.526 282.526-240.791 317.841zM566.579 611.738c-3.209 0-3.209 0-6.421 0l44.947 166.947h89.894l-128.421-166.947zM528.053 614.947c-3.209 0-6.421 0-6.421 0-3.209 0-6.421 0-6.421 0l-48.159 166.947h102.738l-41.738-166.947zM637.209 903.894l57.791-89.894h-96.315l-35.315 89.894h73.841zM531.262 903.894l35.315-89.894h-99.526l35.315 89.894h28.894zM399.632 903.894h70.632l-35.315-89.894h-96.315l61 89.894zM341.841 781.894h93.106l44.947-166.947c-3.209 0-6.421 0-6.421 0l-131.632 166.947zM518.421-7.894c-163.738 0-295.368 131.632-295.368 295.368s131.632 295.368 295.368 295.368 295.368-131.632 295.368-295.368c0-163.738-131.632-295.368-295.368-295.368z" />
<glyph unicode="&#xe908;" glyph-name="lugares" d="M473.135 922.17c-186.56 0-342.027-151.58-342.027-342.027 0-182.67 310.932-582.995 326.48-598.54l15.547-19.433 15.547 19.433c11.662 15.547 326.48 415.872 326.48 598.54 0 186.56-155.465 342.027-342.027 342.027zM473.135 24.357c-62.187 81.62-303.155 408.095-303.155 555.79 0 167.127 136.032 303.155 303.155 303.155s303.155-136.032 303.155-303.155c0-147.69-240.972-470.282-303.155-555.79zM473.135 782.25c-112.71 0-202.107-89.393-202.107-202.107s89.393-202.107 202.107-202.107c112.71 0 202.107 89.393 202.107 202.107s-89.393 202.107-202.107 202.107zM473.135 413.020c-89.393 0-163.238 73.845-163.238 163.238s73.845 163.238 163.238 163.238c89.393 0 163.238-73.845 163.238-163.238s-73.845-163.238-163.238-163.238z" />
<glyph unicode="&#xe909;" glyph-name="mobiliario" d="M981.489 719.074h-938.981c-8.385 0-13.974-5.588-13.974-13.974v-100.606c0-8.385 5.588-13.974 13.974-13.974h64.275v-399.625c0-8.385 5.588-13.974 13.974-13.974h100.606c8.385 0 13.974 5.588 13.974 13.974v399.625h81.042v-195.622c0-8.385 5.588-13.974 13.974-13.974h100.606c8.385 0 13.974 5.588 13.974 13.974v195.622h131.346v-195.622c0-8.385 5.588-13.974 13.974-13.974h100.606c8.385 0 13.974 5.588 13.974 13.974v195.622h81.042v-399.625c0-8.385 5.588-13.974 13.974-13.974h100.606c8.385 0 13.974 5.588 13.974 13.974v399.625h64.275c8.385 0 13.974 5.588 13.974 13.974v100.606c2.795 8.385-2.795 13.974-11.178 13.974zM207.391 204.871h-72.659v385.653h72.659v-385.653zM419.779 408.876h-72.659v181.648h72.659v-181.648zM679.677 408.876h-72.659v181.648h72.659v-181.648zM889.268 204.871h-72.659v385.653h72.659v-385.653zM967.517 618.47h-911.035v72.659h911.035v-72.659z" />
<glyph unicode="&#xe90a;" glyph-name="musica" d="M982.109 816.25h-616.046v-647.020c-17.206 13.767-37.856 24.089-61.95 24.089h-192.728c-55.065 0-96.366-44.74-96.366-96.366s44.74-96.366 96.366-96.366h192.728c55.065 0 96.366 44.74 96.366 96.366 0 0 0 3.441 0 3.441v0 560.979h547.212v-316.625c-17.206 13.767-37.856 24.089-61.95 24.089h-192.728c-55.065 0-96.366-44.74-96.366-96.366s44.74-96.366 96.366-96.366h192.728c55.065 0 96.366 44.74 96.366 96.366 0 0 0 3.441 0 3.441v0 540.33zM304.113 31.569h-192.728c-34.416 0-61.95 27.534-61.95 61.95s27.534 61.95 61.95 61.95h192.728c34.416 0 61.95-27.534 61.95-61.95 0-30.973-27.534-61.95-61.95-61.95zM882.303 207.089h-192.728c-34.416 0-61.95 27.534-61.95 61.95s27.534 61.95 61.95 61.95h192.728c34.416 0 61.95-27.534 61.95-61.95s-24.089-61.95-61.95-61.95zM947.693 695.793h-547.212v86.038h547.212v-86.038z" />
<glyph unicode="&#xe90b;" glyph-name="organizadores" d="M771.056 234.501h-321.944c-10.166 0-16.944-6.777-16.944-16.944s6.777-16.944 16.944-16.944h321.944c10.166 0 16.944 6.777 16.944 16.944s-6.777 16.944-16.944 16.944zM771.056 448h-321.944c-10.166 0-16.944-6.777-16.944-16.944s6.777-16.944 16.944-16.944h321.944c10.166 0 16.944 6.777 16.944 16.944s-6.777 16.944-16.944 16.944zM442.335 325.999c-6.777 6.777-16.944 6.777-23.721 0l-118.612-118.612-30.5 30.5c-6.777 6.777-16.944 6.777-23.721 0s-6.777-16.944 0-23.721l44.057-44.057c3.387-3.387 6.777-3.387 13.557-3.387s10.166 3.387 13.557 3.387l132.165 132.165c0 6.777 0 16.944-6.777 23.721zM286.444 600.499c3.387-3.387 6.777-3.387 13.557-3.387s10.166 3.387 13.557 3.387l132.165 132.165c6.777 6.777 6.777 16.944 0 23.721s-16.944 6.777-23.721 0l-118.612-118.612-30.5 30.5c-6.777 6.777-16.944 6.777-23.721 0s-6.777-16.944 0-23.721l37.277-44.057zM865.944 932.612h-704.887c-10.166 0-16.944-6.777-16.944-16.944v-942.113c0-10.166 6.777-16.944 16.944-16.944h704.887c10.166 0 16.944 6.777 16.944 16.944v942.113c0 10.166-10.166 16.944-16.944 16.944zM849-12.888h-671v911.612h671v-911.612zM286.444 387c3.387-3.387 6.777-3.387 13.557-3.387s10.166 3.387 13.557 3.387l132.165 132.165c6.777 6.777 6.777 16.944 0 23.721s-16.944 6.777-23.721 0l-118.612-118.612-30.5 30.5c-6.777 6.777-16.944 6.777-23.721 0s-6.777-16.944 0-23.721l37.277-44.057zM432.166 647.943c0-10.166 6.777-16.944 16.944-16.944h321.944c10.166 0 16.944 6.777 16.944 16.944s-6.777 16.944-16.944 16.944h-321.944c-10.166 0-16.944-10.166-16.944-16.944z" />
<glyph unicode="&#xe90c;" glyph-name="otros" d="M659.416 329c61 50.834 101.665 160.125 101.665 251.626 0 124.54-78.792 226.21-175.376 226.21-2.54 0-7.626 0-10.166 0-27.959 81.335-91.501 132.166-160.125 132.166-96.584 0-175.376-101.665-175.376-226.21 0-94.041 40.665-200.792 101.665-251.626l-30.501-55.916c-2.54-5.084-2.54-10.166 0-15.25s7.626-5.084 12.709-5.084l58.46 15.25 15.25-20.335c0-25.416 12.709-58.46 33.041-83.875 27.959-38.125 35.584-96.584 15.25-124.54l-45.75-63.54 20.335-15.25 43.21 61c27.959 38.125 20.335 106.75-15.25 155.041-15.25 17.79-22.875 40.665-27.959 58.46 0 0 0 0 0 0l22.875 30.501 7.626-2.54c15.25-27.959 33.041-50.834 53.374-68.626l-30.501-55.916c-2.54-5.084-2.54-10.166 0-12.709 2.54-5.084 7.626-5.084 12.709-5.084l58.46 15.25 15.25-20.335c0-25.416 12.709-58.46 33.041-83.875 27.959-38.125 35.584-96.584 15.25-124.54l-43.21-61 20.335-15.25 43.21 61c27.959 38.125 20.335 106.75-15.25 155.041-15.25 17.79-22.875 40.665-27.959 58.46 0 0 0 0 0 0l22.875 30.501 58.46-15.25c5.084-2.54 10.166 0 12.709 5.084s2.54 10.166 0 12.709l-20.335 58.46zM262.915 712.792c0 111.834 68.626 200.792 149.959 200.792 58.46 0 109.291-43.21 134.709-109.291-78.792-20.335-139.792-111.834-139.792-221.125 0-40.665 7.626-83.875 22.875-124.54-5.084-2.54-10.166-2.54-17.79-2.54-78.792-2.54-149.959 142.335-149.959 256.709zM433.208 423.041l-20.335-22.875-20.335 22.875c-2.54 5.084-7.626 5.084-12.709 5.084l-35.584-10.166 15.25 27.959c17.79-10.166 35.584-15.25 53.374-15.25 7.626 0 17.79 2.54 25.416 5.084 0-2.54 2.54-2.54 2.54-5.084-2.54-5.084-5.084-5.084-7.626-7.626zM616.21 295.959c-5.084 2.54-10.166 0-12.709-5.084l-17.79-22.875-20.335 22.875c-2.54 5.084-7.626 5.084-12.709 5.084l-35.584-10.166 15.25 27.959c17.79-10.166 35.584-15.25 53.374-15.25s38.125 5.084 53.374 15.25l15.25-27.959-38.125 10.166zM585.709 321.374c-78.792 0-149.959 144.875-149.959 259.25 0 111.834 68.626 200.792 149.959 200.792s149.959-88.959 149.959-200.792c0-114.374-71.166-259.25-149.959-259.25z" />
<glyph unicode="&#xe90d;" glyph-name="pastelerias" d="M666.098 785.088c25.684 0 44.945 19.261 44.945 44.945 0 19.261-22.473 64.206-32.103 83.469l-12.842 28.894-12.842-28.894c-9.632-19.261-32.103-64.206-32.103-83.469-3.21-22.473 19.261-44.945 44.945-44.945zM666.098 871.768c9.632-16.052 12.842-32.103 12.842-38.526s-6.419-12.842-12.842-12.842c-6.419 0-12.842 6.419-12.842 12.842-3.21 3.21 3.21 19.261 12.842 38.526zM512 785.088c25.684 0 44.945 19.261 44.945 44.945 0 19.261-22.473 64.206-32.103 83.469l-12.842 28.894-12.842-25.684c-9.632-19.261-32.103-64.206-32.103-83.469 0-25.684 19.261-48.155 44.945-48.155zM512 871.768c6.419-16.052 12.842-32.103 12.842-38.526s-6.419-12.842-12.842-12.842c-6.419 0-12.842 6.419-12.842 12.842 0 3.21 6.419 19.261 12.842 38.526zM791.301 367.741v260.040h-83.469v144.466h-89.89v-144.466h-64.206v141.256h-86.681v-141.256h-64.206v144.466h-89.89v-144.466h-80.259v-260.040h-118.784v-417.347h796.17v417.347h-118.784zM653.256 740.143h25.684v-109.151h-25.684v109.151zM499.158 736.933h25.684v-109.151h-25.684v109.151zM345.062 740.143h25.684v-109.151h-25.684v109.151zM264.802 595.677h494.395v-227.937h-494.395v227.937zM146.019 152.648l109.151 93.1 125.205-105.942 131.626 105.942 131.626-105.942 125.205 105.942 109.151-93.1v-70.629l-109.151 93.1-125.205-105.942-131.626 105.942-131.626-105.942-125.205 105.942-109.151-93.1v70.629zM877.981-17.504h-731.962v54.578l109.151 93.1 125.205-105.942 131.626 105.942 131.626-105.942 125.205 105.942 109.151-93.1v-54.578zM877.981 194.381l-109.151 93.1-125.205-105.942-131.626 105.942-131.626-105.942-125.205 105.942-109.151-93.1v141.256h731.962v-141.256zM357.902 785.088c25.684 0 44.945 19.261 44.945 44.945 0 19.261-22.473 64.206-32.103 83.469l-12.842 28.894-12.842-28.894c-9.632-19.261-32.103-64.206-32.103-83.469-3.21-22.473 19.261-44.945 44.945-44.945zM357.902 871.768c6.419-19.261 12.842-32.103 12.842-38.526s-6.419-12.842-12.842-12.842c-6.419 0-12.842 6.419-12.842 12.842-3.21 3.21 3.21 19.261 12.842 38.526z" />
<glyph unicode="&#xe90e;" glyph-name="pinatas" d="M877.849 496l-58.843 179.087c0 0 0 0 0 0s0 2.558-2.558 2.558c0 0 0 0 0 0s0 0 0 0 0 0 0 0-2.558 2.558-2.558 2.558c0 0 0 0 0 0s0 0 0 0 0 0 0 0 0 0 0 0-2.558 0-2.558 0c0 0 0 0 0 0s0 0 0 0 0 0 0 0 0 0 0 0l-225.138 7.676c-7.676 2.558-15.35 7.676-23.026 10.234-5.116 2.558-12.792 2.558-17.908 5.116v243.046c0 7.676-5.116 12.792-12.792 12.792s-12.792-5.116-12.792-12.792v-230.254l-171.411 117.686c-5.116 2.558-7.676 2.558-12.792 0s-7.676-5.116-7.676-10.234l-5.116-138.152c0 0 0 0 0 0l-2.558-86.985c-7.676-15.35-12.792-30.702-15.35-48.609l-125.36-181.646c0 0 0 0 0 0s0 0 0 0 0 0 0-2.558c0 0 0 0 0-2.558 0 0 0 0 0 0s0 0 0 0v-2.558c0 0 0 0 0-2.558l-28.141-150.944c-2.558-7.676 2.558-12.792 10.234-15.35 0 0 2.558 0 2.558 0 5.116 0 10.234 5.116 12.792 10.234l10.234 53.725 5.116-97.219c0-7.676 5.116-12.792 12.792-12.792 0 0 0 0 0 0 7.676 0 12.792 7.676 12.792 12.792l-7.676 122.802 28.141-66.517c2.558-5.116 7.676-7.676 12.792-7.676 2.558 0 2.558 0 5.116 0 7.676 2.558 10.234 10.234 7.676 17.908l-48.609 115.127 204.671-7.676c15.35-7.676 30.702-12.792 46.051-15.35l74.193-51.168c0 0 0 0 0 0l102.335-69.077-28.141-186.762c0-7.676 2.558-12.792 10.234-15.35 0 0 0 0 2.558 0 5.116 0 12.792 5.116 12.792 10.234l10.234 71.635 5.116-112.568c0-7.676 5.116-12.792 12.792-12.792 0 0 0 0 0 0 7.676 0 12.792 7.676 12.792 12.792l-7.676 143.27 28.141-86.985c2.558-5.116 7.676-7.676 12.792-7.676 2.558 0 2.558 0 5.116 0 7.676 2.558 10.234 10.234 7.676 15.35l-56.285 168.854c0 0 0 0 0 0l7.676 225.138c2.558 7.676 7.676 15.35 10.234 23.026s5.116 15.35 5.116 25.584l94.66 140.711-20.467-140.711c0-7.676 2.558-12.792 10.234-15.35 0 0 0 0 2.558 0 5.116 0 12.792 5.116 12.792 10.234l10.234 63.959 7.676-166.295c0-7.676 5.116-12.792 12.792-12.792v0c7.676 0 12.792 5.116 12.792 12.792l-7.676 207.229 30.702-89.543c2.558-5.116 7.676-7.676 12.792-7.676 2.558 0 2.558 0 5.116 0-2.558 7.676 2.558 15.35 0 23.026zM353.381 800.448l76.751-51.168-79.31-40.933 2.558 92.102zM348.264 677.646l104.894 53.725 30.702-20.467c-25.584-2.558-51.168-7.676-76.751-20.467-23.026-12.792-46.051-28.141-61.401-48.609l2.558 35.817zM212.668 368.080l51.168 76.751 40.933-79.31-92.102 2.558zM332.913 365.522l-53.725 104.894 20.467 30.702c2.558-25.584 7.676-51.168 20.467-76.751s28.141-46.051 48.609-61.401l-35.817 2.558zM642.478 227.37l-76.751 51.168 79.31 40.933-2.558-92.102zM647.594 347.614l-104.894-53.725-30.702 20.467c25.584 2.558 51.168 7.676 76.751 20.467 23.026 12.792 43.494 28.141 61.401 48.609l-2.558-35.817zM660.386 460.183c-15.35-43.494-43.494-79.31-84.427-99.776-84.427-43.494-186.762-7.676-230.254 76.751s-7.676 186.762 76.751 230.254c25.584 12.792 51.168 17.908 76.751 17.908 17.908 0 35.817-2.558 53.725-7.676 43.494-15.35 79.31-43.494 99.776-84.427 17.908-43.494 23.026-89.543 7.676-133.036zM693.646 526.702c-2.558 25.584-7.676 51.168-20.467 76.751-12.792 23.026-28.141 43.494-48.609 61.401l38.376-2.558 53.725-104.894-23.026-30.702zM732.021 582.985l-40.933 79.31 92.102-2.558-51.168-76.751zM435.249 639.27c-33.259-17.908-58.843-46.051-69.077-81.869-12.792-35.817-7.676-74.193 7.676-107.452s46.051-58.843 81.869-69.077c15.35-5.116 28.141-7.676 43.494-7.676 20.467 0 43.494 5.116 63.959 15.35 69.077 35.817 97.219 120.244 61.401 189.321s-120.244 94.66-189.321 61.401zM606.66 478.092c-10.234-28.141-30.702-53.725-56.285-66.517-28.141-12.792-58.843-15.35-86.985-7.676-28.141 10.234-53.725 30.702-66.517 56.285s-15.35 58.843-7.676 86.985c10.234 28.141 30.702 53.725 56.285 66.517 15.35 7.676 33.259 12.792 51.168 12.792 40.933 0 81.869-23.026 102.335-63.959 15.35-25.584 17.908-56.285 7.676-84.427z" />
<glyph unicode="&#xe90f;" glyph-name="presentadores" d="M493.936 751.485c54.194 0 100.647 43.872 100.647 100.647s-43.872 100.647-100.647 100.647-100.647-43.872-100.647-100.647 46.453-100.647 100.647-100.647zM493.936 926.969c41.29 0 74.84-33.549 74.84-74.84s-33.549-74.84-74.84-74.84c-41.29 0-74.84 33.549-74.84 74.84s33.549 74.84 74.84 74.84zM710.709 586.322c-2.58 15.484-18.064 98.066-33.549 121.29-30.969 36.13-116.13 36.13-126.451 33.549h-7.743l-25.807-56.776v10.323h-46.453v-10.323l-25.807 56.776h-7.743c-10.323 0-95.486 2.58-126.451-33.549-18.064-20.646-30.969-103.227-33.549-121.29l-2.58-15.484h441.29l-5.161 15.484zM302.968 596.645c7.743 36.13 18.064 82.582 25.807 92.905 18.064 20.646 69.679 25.807 95.486 25.807 0 0 0 0 0 0l54.194-118.71h-175.482zM488.774 596.645l5.161 67.097 5.161-67.097h-10.323zM506.839 596.645l54.194 118.71c0 0 0 0 0 0 25.807 0 80.002-5.161 95.486-25.807 7.743-10.323 18.064-56.776 25.807-92.905h-175.482zM313.291-7.226h361.291l56.776 320.001h-477.42l59.356-320.001zM653.935 18.583h-320.001l-49.033 268.388h415.483l-46.453-268.388zM184.256 534.71l30.969-188.386h557.42l30.969 188.386h-619.354zM749.419 372.128h-510.969l-23.226 136.772h557.42l-23.226-136.772z" />
<glyph unicode="&#xe910;" glyph-name="recuerdos" d="M747.301 742.505v209.495h-695.277v-798.505h203.421v-209.495h695.277v798.505h-203.421zM255.446 183.856h-173.060v737.783h634.554v-179.132h-33.397v136.625h-567.758v-522.217h139.663v-173.060zM255.446 387.278h-109.302v461.494h510.072v-106.264h-400.772v-355.229zM920.361-25.639h-634.554v737.783h634.554v-737.783zM886.964 669.638h-567.758v-522.217h570.796v522.217zM856.603 174.747h-507.036v464.53h510.072v-464.53z" />
<glyph unicode="&#xe911;" glyph-name="regalos" d="M961.174 639.976h-284.268c25.844 11.078 51.685 22.149 62.763 33.226 25.844 25.844 36.917 59.070 36.917 92.297 0 36.917-14.768 70.143-36.917 92.297-51.685 51.685-136.596 51.685-184.591 0-22.149-22.149-40.607-77.529-51.685-129.213-11.078 51.685-29.536 107.060-51.685 129.213-25.844 25.844-59.070 36.917-92.297 36.917 0 0 0 0 0 0-36.917 0-66.453-14.768-92.297-36.917-25.844-25.844-36.917-59.070-36.917-92.297 0-36.917 14.768-66.453 36.917-92.297 14.768-14.768 36.917-25.844 62.763-33.226h-273.192c-11.078 0-18.458-7.38-18.458-18.458v-155.054c0-11.078 7.38-18.458 18.458-18.458h18.458v-431.942c0-11.078 7.38-18.458 18.458-18.458h826.965c11.078 0 18.458 7.38 18.458 18.458v431.942h22.149c11.078 0 18.458 7.38 18.458 18.458v155.054c0 11.078-11.078 18.458-18.458 18.458zM411.094 34.516h-299.036v413.484h299.036v-413.484zM411.094 484.917h-339.645v118.138h339.645v-118.138zM289.266 699.041c-18.458 18.458-29.536 40.607-29.536 66.453s11.078 47.995 29.536 66.453c18.458 18.458 40.607 29.536 66.453 29.536 0 0 0 0 0 0 25.844 0 47.995-11.078 66.453-29.536 0 0 0 0 0 0 25.844-25.844 47.995-121.828 59.070-191.976-70.143 11.078-166.13 33.226-191.976 59.070zM566.149 34.516h-118.138v413.484h118.138v-413.484zM566.149 484.917h-118.138v118.138h118.138v-118.138zM525.542 643.666c11.078 70.143 29.536 166.13 55.375 191.976 18.458 18.458 44.304 29.536 66.453 29.536 25.844 0 47.995-7.38 66.453-25.844s29.536-40.607 29.536-66.453c0-25.844-11.078-47.995-29.536-66.453-25.844-33.226-121.828-55.375-188.281-62.763zM902.106 34.516h-299.036v413.484h299.036v-413.484zM942.715 484.917h-339.645v118.138h339.645v-118.138z" />
<glyph unicode="&#xe912;" glyph-name="salon" d="M115.715 527.609c-33.68-12.249-55.114-18.372-67.364-6.122l-21.433-21.433c12.249-12.249 24.496-15.311 39.807-15.311 18.372 0 39.807 6.122 58.176 15.311 39.807 15.311 67.364 21.433 85.736 0l21.433 21.433c-33.68 36.746-79.609 18.372-116.354 6.122zM115.715 438.815c-33.68-12.249-55.114-18.372-67.364-6.122l-21.433-21.433c12.249-12.249 24.496-15.311 39.807-15.311 18.372 0 39.807 6.122 58.176 15.311 39.807 15.311 67.364 21.433 85.736 0l21.433 21.433c-33.68 36.746-79.609 21.433-116.354 6.122zM767.911 619.469c-58.176 0-104.105-45.929-104.105-104.105s45.929-104.105 104.105-104.105 104.105 45.929 104.105 104.105c0 55.114-45.929 104.105-104.105 104.105zM767.911 438.815c-39.807 0-73.486 33.68-73.486 73.486s33.68 73.486 73.486 73.486 73.486-33.68 73.486-73.486c0-39.807-33.68-73.486-73.486-73.486zM115.715 613.344c-33.68-12.249-55.114-18.372-67.364-6.122l-21.433-21.433c12.249-12.249 24.496-15.311 39.807-15.311 18.372 0 39.807 6.122 58.176 15.311 39.807 15.311 67.364 21.433 85.736 0l21.433 21.433c-33.68 36.746-79.609 21.433-116.354 6.122zM982.248 154.052l-67.364 211.276c24.496 39.807 36.746 91.858 36.746 150.034 0 146.973-85.736 248.019-214.337 248.019-82.674 0-349.063-107.169-440.921-171.469l-6.122-3.061v-140.85l6.122-3.061c91.858-64.301 358.248-171.469 440.921-171.469l55.114-174.53c3.061-12.249 12.249-24.496 24.496-30.618 6.122-3.061 15.311-6.122 24.496-6.122 6.122 0 12.249 0 15.311 3.061l88.797 27.557c12.249 3.061 24.496 12.249 30.618 24.496 9.185 9.185 9.185 24.496 6.122 36.746zM320.866 460.249v110.232c101.044 64.301 349.063 162.283 419.488 162.283 125.54 0 183.718-110.232 183.718-217.398 0-52.053-12.249-104.105-39.807-143.911v0 0c-30.618-42.868-76.547-73.486-140.85-73.486-76.547 0-324.567 94.921-422.549 162.283zM951.63 126.494c-3.061-6.122-6.122-9.185-12.249-12.249l-88.797-27.557c-6.122-3.061-12.249 0-15.311 0s-9.185 6.122-12.249 12.249l-52.053 165.344c48.99 6.122 91.858 30.618 122.477 64.301l61.24-189.841c0 0 0-6.122-3.061-12.249z" />
<glyph unicode="&#xe913;" glyph-name="trajes" d="M983.224 236.673l-104.888 531.208c0 3.385-3.385 10.152-10.152 10.152l-182.707 101.507-23.686 43.985c-3.385 6.765-10.152 10.152-16.916 10.152s-13.536-6.765-13.536-13.536l-108.273-625.95-108.273 625.95c0 6.765-6.765 13.536-13.536 13.536s-13.536-3.385-16.916-10.152l-23.686-43.985-186.094-98.122c-3.385-3.385-6.765-6.765-10.152-10.152l-104.888-531.208c0 0 0-3.385 0-3.385l13.536-226.696c0-10.152 6.765-16.916 16.916-16.916h131.954c3.385 0 10.152 3.385 13.536 6.765s3.385 6.765 3.385 13.536l-6.765 216.544 27.068 108.273 20.301-209.775-16.916-111.658c0-3.385 0-10.152 3.385-13.536s6.765-6.765 13.536-6.765h490.611c3.385 0 10.152 3.385 13.536 6.765s3.385 10.152 3.385 13.536l-16.916 111.658 20.301 209.775 27.068-108.273-6.765-216.544c0-3.385 0-10.152 3.385-13.536 0-10.152 3.385-10.152 6.765-10.152h131.954c10.152 0 16.916 6.765 16.916 16.916l13.536 226.696c0 0 0 0 0 3.385zM502.765 23.513h-209.775l13.536 94.737c0 0 0 3.385 0 3.385l-27.068 314.668c0 6.765-6.765 13.536-16.916 16.916-10.152 0-16.916-3.385-16.916-13.536l-50.753-209.775c0 0 0-3.385 0-3.385l6.765-203.010h-98.122l-13.536 209.775 101.507 521.060 182.707 98.122c3.385 0 6.765 3.385 6.765 6.765l3.385 6.765 118.423-673.318v-169.178zM935.855 23.513h-98.122l6.765 203.010c0 0 0 3.385 0 3.385l-50.753 209.775c-3.385 6.765-10.152 13.536-16.916 13.536s-13.536-6.765-16.916-16.916l-30.452-314.668c0 0 0-3.385 0-3.385l13.536-94.737h-209.775v169.178l118.423 669.933 3.385-6.765c0-3.385 3.385-6.765 6.765-6.765l182.707-98.122 101.507-521.060-10.152-206.395z" />
<glyph unicode="&#xe914;" glyph-name="trajes_bebe" d="M996.446 665.727c-6.499 3.25-16.248 12.999-90.991-9.749-35.745 32.496-110.488 71.493-162.484 19.497-45.495-45.495-68.242-90.991-74.742-113.737-3.25 0-6.499 0-9.749 3.25l-142.985 269.721c-3.25 3.25-6.499 6.499-9.749 9.749-3.25 0-9.749 0-12.999-3.25-68.242-48.744-94.24-126.736-100.74-168.983-77.992 45.495-162.484 107.239-237.224 191.729-3.25 3.25-6.499 6.499-12.999 6.499-3.25 0-9.749-3.25-12.999-6.499-6.499-6.499-129.986-146.233 9.749-396.459 45.495-81.241 136.486-146.233 188.48-181.982-276.221-29.247-285.971-58.494-289.22-68.242-3.25-6.499 0-12.999 6.499-19.497l38.997-25.998v-19.497c0-9.749 6.499-16.248 16.248-16.248h29.247l19.497-38.997c3.25-6.499 9.749-9.749 19.497-9.749l32.496 9.749 22.746-29.247c3.25-3.25 6.499-6.499 9.749-6.499 0 0 3.25 0 9.749 0 12.999 0 42.246 3.25 74.742 25.998s84.49 35.745 103.99 38.997c126.736-64.993 269.721-12.999 350.963 51.994 100.74 77.992 100.74 259.973 100.74 321.717 0 42.246 58.494 84.49 94.24 110.488 25.998 19.497 35.745 25.998 35.745 38.997 0 6.499-3.25 12.999-6.499 16.248zM492.75 802.213l120.237-227.477c-48.744 12.999-116.989 38.997-194.981 77.992 3.25 29.247 19.497 100.74 74.742 149.485zM837.214 499.994c0-55.245 0-224.227-87.741-295.719-74.742-58.494-204.728-107.239-321.717-45.495-3.25 3.25-6.499 3.25-9.749 0-3.25 0-74.742-16.248-120.237-45.495-25.998-16.248-48.744-19.497-55.245-19.497l-25.998 29.247c-3.25 3.25-6.499 6.499-12.999 6.499 0 0-3.25 0-3.25 0l-29.247-6.499-16.248 35.745c-3.25 6.499-9.749 9.749-16.248 9.749h-25.998v9.749c0 6.499-3.25 9.749-6.499 12.999l-25.998 16.248c48.744 16.248 178.732 35.745 295.719 45.495 6.499 0 12.999 6.499 12.999 12.999s-3.25 12.999-9.749 16.248c0 0-159.232 84.49-217.727 191.729-103.99 188.48-48.744 305.469-25.998 344.463 233.975-246.974 523.196-295.719 536.195-298.968 9.749 0 16.248 3.25 19.497 12.999 0 0 16.248 58.494 71.493 113.737 48.744 48.744 123.487-25.998 123.487-25.998 3.25-3.25 9.749-6.499 16.248-3.25 12.999 3.25 25.998 6.499 38.997 9.749-42.246-22.746-103.99-68.242-103.99-126.736z" />
<glyph unicode="&#xe915;" glyph-name="transporte" d="M958.028 265.339v240.957c0 66.069-50.525 116.592-112.706 124.365l-69.955 260.39h-540.21l-69.955-260.39c-62.181-3.886-112.706-58.296-112.706-124.365v-240.957h-34.977v-120.48h124.365v-62.181c0-46.639 34.977-81.614 81.614-81.614s81.614 34.977 81.614 81.614v62.181h396.411v-62.181c0-46.639 34.977-81.614 81.614-81.614s81.614 34.977 81.614 81.614v62.181h124.365v120.48h-31.092zM266.247 852.188h481.914l58.296-221.524h-34.977l-54.41 198.208h-423.618l-54.41-198.208h-34.977l62.181 221.524zM728.728 630.661h-446.936l42.748 159.343h361.436l42.748-159.343zM87.474 506.296c0 46.639 38.863 85.502 85.502 85.502h660.689c46.639 0 85.502-38.863 85.502-85.502v-240.957h-831.691v240.957zM266.247 82.678c0-23.318-19.433-42.748-42.748-42.748s-42.748 19.433-42.748 42.748v62.181h85.502v-62.181zM825.892 82.678c0-23.318-19.433-42.748-42.748-42.748s-42.748 19.433-42.748 42.748v62.181h85.502v-62.181zM954.143 183.725h-897.76v42.748h897.76v-42.748zM223.496 510.181c-46.639 0-81.614-34.977-81.614-81.614s34.977-81.614 81.614-81.614c46.639 0 81.614 34.977 81.614 81.614s-34.977 81.614-81.614 81.614zM223.496 385.819c-23.318 0-42.748 19.433-42.748 42.748s19.433 42.748 42.748 42.748c23.318 0 42.748-19.433 42.748-42.748s-19.433-42.748-42.748-42.748zM783.138 510.181c-46.639 0-81.614-34.977-81.614-81.614s34.977-81.614 81.614-81.614c46.639 0 81.614 34.977 81.614 81.614s-34.977 81.614-81.614 81.614zM783.138 385.819c-23.318 0-42.748 19.433-42.748 42.748s19.433 42.748 42.748 42.748c23.318 0 42.748-19.433 42.748-42.748s-15.547-42.748-42.748-42.748z" />
<glyph unicode="&#xe916;" glyph-name="vestidos" d="M716.235 341.019c-32.418 58.354-58.354 103.739-58.354 171.817 0 45.386 16.21 81.046 38.904 123.189 12.968 22.692 22.692 48.628 35.66 77.804 32.418 87.529 0 123.189-3.242 129.673-16.21 16.21-35.66 22.692-55.112 25.936v71.322h-32.418v-71.322c-51.868-6.482-100.497-42.144-123.189-58.354-22.692 16.21-71.322 51.868-123.189 58.354v71.322h-32.418v-71.322c-19.45-3.242-38.904-9.726-58.354-25.936-3.242-3.242-35.66-42.144-3.242-126.431 9.726-29.176 22.692-51.868 35.66-77.804 19.45-42.144 38.904-74.562 38.904-123.189 0-71.322-25.936-116.707-58.354-171.817-45.386-77.804-103.739-178.301-103.739-379.294v-16.21h612.706v16.21c-9.726 200.993-64.836 298.248-110.221 376.052zM359.635 652.235c-9.726 22.692-22.692 45.386-32.418 74.562-22.692 64.836-3.242 94.013-3.242 94.013s0 0 0 0c64.836 58.354 178.301-42.144 178.301-42.144l6.482-3.242h12.968l3.242 3.242c0 0 113.463 100.497 178.301 42.144 0 0 22.692-29.176-3.242-94.013-9.726-25.936-22.692-51.868-32.418-74.562-19.45-38.904-35.66-74.562-42.144-119.947h-223.687c-6.482 45.386-22.692 81.046-42.144 119.947zM239.686-18.823c3.242 181.543 51.868 269.070 97.253 346.876 32.418 55.112 58.354 103.739 61.596 171.817h223.687c3.242-68.078 32.418-116.707 61.596-171.817 45.386-77.804 94.013-165.333 97.253-346.876h-541.385z" />
<glyph unicode="&#xe917;" glyph-name="viajes" d="M950.53 890.514v0c-39.837 39.837-99.59 39.837-139.427 0l-215.117-215.117-394.385 131.462-95.609-95.609 342.597-183.25-159.347-159.347-179.264 19.917-91.625-95.609 227.071-111.542 111.542-227.071 95.609 95.609-19.917 179.264 159.347 159.347 183.25-342.597 95.609 95.609-135.446 394.385 215.117 215.117c39.837 39.837 39.837 99.59 0 139.427zM922.645 778.972l-231.052-231.052 131.462-394.385-39.837-39.837-183.25 342.597-211.135-211.135 19.917-179.264-43.821-39.837-91.625 187.234-187.234 91.625 43.821 39.837 179.264-19.917 211.135 211.135-342.597 183.25 39.837 39.837 394.385-131.462 231.052 231.052c23.901 23.901 59.754 23.901 83.657 0 19.917-19.917 19.917-55.772-3.984-79.673z" />
<glyph unicode="&#xe918;" glyph-name="video" d="M275.462 433.050h299.032v37.379h-299.032v-37.379zM813.722 623.681v44.855c0 78.497-63.545 142.041-142.041 142.041h-497.144c-78.497 0-142.041-63.545-142.041-142.041v-254.177c0-78.497 63.545-142.041 142.041-142.041h82.234l-85.973-179.42c-7.474-18.689-3.739-37.379 3.739-56.068s22.428-29.905 41.118-37.379c7.474-3.739 14.95-3.739 22.428-3.739 11.215 0 22.428 3.739 29.905 7.474 18.689 7.474 29.905 22.428 37.379 41.118l104.662 228.014h26.163l100.923-224.275c7.474-18.689 18.689-33.64 37.379-41.118 11.215-3.739 22.428-7.474 29.905-7.474s14.95 0 22.428 3.739c37.379 11.215 56.068 52.33 44.855 93.447l-82.234 175.681h82.234c78.497 0 142.041 63.545 142.041 142.041v29.905l168.204-100.923v381.268l-168.204-100.923zM275.462 59.256c-3.739-7.474-7.474-14.95-18.689-18.689-7.474-3.739-18.689-3.739-26.163 0s-14.95 7.474-18.689 18.689c-3.739 7.474-3.739 18.689-3.739 26.163l89.712 194.371h71.021l-93.447-220.538zM638.041 81.684c7.474-18.689-3.739-37.379-22.428-44.855-7.474-3.739-18.689-3.739-26.163 0s-14.95 11.215-18.689 22.428l-97.186 213.062h71.021l93.447-190.635zM776.343 414.36c0-56.068-44.855-104.662-104.662-104.662h-497.144c-56.068 0-104.662 44.855-104.662 104.662v254.177c0 56.068 44.855 104.662 104.662 104.662h497.144c56.068 0 104.662-44.855 104.662-104.662v-254.177zM944.552 406.882l-130.826 78.497v93.447l130.826 78.497v-250.442z" />
<glyph unicode="&#xe919;" glyph-name="zapatos" d="M695.822 239.255c-3.539 0-10.616 0-14.151-3.539-10.616-7.075-53.070-35.38-74.299-35.38-10.616 3.539-38.919 56.609-56.609 99.066-17.69 35.38-35.38 77.837-56.609 113.219-10.616 14.151-21.229 38.919-38.919 63.686-169.826 293.659-237.050 385.648-275.969 385.648-31.842 0-60.147-42.457-109.681-162.751-35.38-81.376-35.38-109.681-35.38-134.446 0-17.69 10.616-67.224 91.989-127.371 49.534-35.38 45.996-91.989 45.996-120.295 0-7.075 0-10.616 0-14.151 0-17.69 0-205.206 0-275.969 0-3.539 3.539-10.616 3.539-14.151 3.539-3.539 7.075-3.539 14.151-3.539h81.376c10.616 0 17.69 7.075 17.69 17.69v375.035c24.765-14.151 67.224-38.919 102.605-95.527 14.151-24.765 31.842-60.147 45.996-91.989 42.457-95.527 95.527-201.67 173.365-201.67h314.887c24.765 0 74.299 14.151 74.299 70.76 3.539 53.070-191.055 120.295-304.272 155.675zM925.797 44.66h-314.887c-60.147 0-102.605 95.527-141.52 180.441-17.69 35.38-31.842 70.76-49.534 99.066-60.147 99.066-141.52 120.295-145.061 120.295 0 0-3.539 0-3.539 0-3.539 0-7.075 0-10.616-3.539-7.075-3.539-7.075-7.075-7.075-14.151v-382.112h-45.996c0 60.147 0 240.587 0 258.279 0 3.539 0 7.075 0 10.616 0 31.842 3.539 102.605-60.147 148.6-74.299 53.070-77.837 91.989-77.837 99.066 0 21.229 0 45.996 31.842 120.295 49.534 113.219 67.224 137.985 77.837 141.52 38.919-14.151 191.055-272.43 247.666-367.957 14.151-28.306 28.306-49.534 38.919-63.686 21.229-35.38 38.919-74.299 56.609-109.681 35.38-74.299 56.609-120.295 88.45-116.756 28.306 3.539 67.224 28.306 84.914 38.919 145.061-45.996 268.892-102.605 275.969-123.83-3.539-31.842-38.919-35.38-45.996-35.38z" />
<glyph unicode="&#xe91a;" glyph-name="bautizo" horiz-adv-x="1207" d="M1168 685.714c-18.286 0-45.714-4.571-57.143-6.857-18.286 16-70.857 54.857-134.857 54.857-25.143 0-50.286-6.857-73.143-20.571-75.429-43.429-96-114.286-102.857-148.571-4.571 0-9.143 2.286-13.714 2.286l-192 361.143-16-11.429c-91.429-64-118.857-169.143-128-217.143-100.571 57.143-210.286 137.143-310.857 246.857l-11.429 13.714-11.429-13.714c-6.857-6.857-162.286-182.857 13.714-498.286 57.143-102.857 134.857-169.143 178.286-198.857-107.429-25.143-288-75.429-304-118.857-22.857-61.714 102.857-144 180.571-185.143 9.143-4.571 20.571-6.857 32-6.857v0c50.286 0 112 45.714 171.429 91.429 38.857 29.714 82.286 61.714 100.571 61.714 54.857-27.429 112-43.429 166.857-43.429 86.857 0 171.429 34.286 260.571 102.857 116.571 91.429 141.714 237.714 141.714 342.857 0 54.857 66.286 100.571 107.429 128 27.429 18.286 41.143 27.429 41.143 41.143 0 6.857-4.571 22.857-38.857 22.857zM582.857 880l160-301.714c-61.714 18.286-155.429 50.286-262.857 105.143 4.571 32 25.143 132.571 102.857 196.571zM1147.429 646.857c-45.714-32-121.143-82.286-121.143-155.429 0-98.286-22.857-233.143-130.286-317.714-134.857-105.143-260.571-123.429-393.143-54.857-27.429 11.429-68.571-16-134.857-64-50.286-36.571-114.286-84.571-153.143-84.571v0c-6.857 0-11.429 2.286-16 4.571-105.143 57.143-176 121.143-166.857 146.286 11.429 25.143 173.714 75.429 317.714 107.429l41.143 9.143-36.571 20.571c-2.286 0-121.143 68.571-198.857 208-137.143 244.571-57.143 397.714-27.429 443.429 105.143-112 219.429-192 324.571-249.143 2.286-2.286 2.286-2.286 4.571-2.286 192-102.857 349.714-130.286 354.286-130.286l18.286-2.286v18.286c0 0 4.571 91.429 89.143 141.714 18.286 11.429 36.571 16 57.143 16 64 0 118.857-50.286 118.857-50.286l6.857-6.857 9.143 2.286c0 0 25.143 4.571 45.714 6.857-2.286-2.286-6.857-4.571-9.143-6.857zM978.286 649.143c-11.429 0-20.571-9.143-20.571-22.857 0-11.429 9.143-20.571 20.571-20.571s22.857 9.143 22.857 20.571c0 13.714-11.429 22.857-22.857 22.857z" />
<glyph unicode="&#xe91b;" glyph-name="bodas" horiz-adv-x="1040" d="M396.899 666.295c80.967 0 147.647 66.679 147.647 147.647s-66.679 146.059-147.647 146.059-147.647-66.679-147.647-147.647 66.679-146.059 147.647-146.059zM396.899 944.124c73.029 0 131.771-58.741 131.771-131.771s-58.741-131.771-131.771-131.771-131.771 58.741-131.771 131.771 60.329 131.771 131.771 131.771zM596.936 745.674c6.35 0 11.113 4.763 11.113 11.113 0 85.73 69.854 153.997 153.997 153.997 85.73 0 153.997-69.854 153.997-153.997 0-6.35 4.763-11.113 11.113-11.113s11.113 4.763 11.113 11.113c0 95.256-79.38 171.46-176.223 171.46s-176.223-74.617-176.223-171.46c0-6.35 4.763-11.113 11.113-11.113zM762.047 888.558c-73.029 0-131.771-58.741-131.771-131.771s58.741-131.771 131.771-131.771c73.029 0 131.771 58.741 131.771 131.771 0 71.442-58.741 131.771-131.771 131.771zM762.047 639.305c-63.504 0-115.895 52.391-115.895 115.895s52.391 115.895 115.895 115.895c63.504 0 115.895-52.391 115.895-115.895s-52.391-115.895-115.895-115.895zM396.899 405.929c-6.35 0-11.113-4.763-11.113-11.113s4.763-11.113 11.113-11.113c6.35 0 11.113 4.763 11.113 11.113s-4.763 11.113-11.113 11.113zM501.681 342.425h69.854v20.639h-68.267v-20.639zM396.899 304.322c-6.35 0-11.113-4.763-11.113-11.113s4.763-11.113 11.113-11.113c6.35 0 11.113 4.763 11.113 11.113s-4.763 11.113-11.113 11.113zM660.44 212.242h7.938c20.639 0 36.515 15.876 36.515 36.515s-15.876 36.515-36.515 36.515h-30.164l-34.927 93.668-26.989-344.509v-1.588l7.938-50.803 76.205 230.202zM612.812 305.91l12.701-36.515h41.278c11.113 0 20.639-9.526 20.639-20.639s-9.526-20.639-20.639-20.639h-25.402l3.175-9.526-52.391-153.997 20.639 241.315zM935.095 163.026c0 1.588 1.588 1.588 0 0 14.288 39.69 120.657 374.673 25.402 420.713-103.194 49.216-174.636-25.402-198.45-58.741-20.639 28.577-79.38 90.493-165.11 69.854l-68.267 36.515-30.164 57.153-96.843-550.896-96.843 550.896-30.164-57.153-152.409-80.967-82.555-427.064 12.701-187.336h119.070l-6.35 180.986 28.577 119.070 19.051-200.037-15.876-98.431h473.104l101.606 288.943-92.081 327.045-46.040 23.814c0 1.588 1.588 1.588 1.588 3.175 73.029-3.175 115.895-73.029 117.482-76.205 0 0 0 0 0 0 1.588-1.588 1.588-3.175 3.175-3.175 0 0 0 0 0 0s0 0 0 0c1.588 0 3.175-1.588 4.763-1.588 0 0 0 0 0 0s0 0 1.588 0 1.588 0 3.175 1.588c0 0 0 0 1.588 0 0 0 0 0 0 0s1.588 1.588 1.588 1.588c0 0 1.588 1.588 1.588 1.588s0 0 0 0c1.588 3.175 44.453 74.617 117.482 76.205 9.526-19.051 41.278-87.318 28.577-130.183-14.288-47.628-58.741-96.843-58.741-98.431-3.175-3.175-3.175-6.35-1.588-11.113l120.657-373.085c1.588-4.763 6.35-7.938 9.526-7.938 1.588 0 1.588 0 3.175 0 6.35 1.588 7.938 7.938 6.35 12.701l-60.329 190.512zM666.791 540.874l88.905-315.932-95.256-273.067h-444.527l12.701 82.555-28.577 296.881-50.803-212.738v-1.588l6.35-166.698h-88.905l-11.113 171.46 82.555 417.538 149.234 79.38 11.113 20.639 104.781-593.761 104.781 593.761 11.113-20.639 147.647-77.792zM877.941 340.837c12.701 14.288 46.040 57.153 60.329 101.606 12.701 44.453-11.113 104.781-23.814 134.946 12.701-1.588 23.814-6.35 38.102-12.701 55.566-26.989 15.876-228.614-26.989-366.735l-47.628 142.884zM396.899 507.535c-6.35 0-11.113-4.763-11.113-11.113s4.763-11.113 11.113-11.113c6.35 0 11.113 4.763 11.113 11.113s-4.763 11.113-11.113 11.113zM458.816 644.068l-53.978-31.752-53.978 31.752v-69.854l53.978 31.752 53.978-31.752v69.854z" />
<glyph unicode="&#xe91c;" glyph-name="conferencias" horiz-adv-x="652" d="M649.331 506.454c-1.409 2.817-4.226 4.226-7.043 4.226h-632.429c-2.817 0-5.634-1.409-7.043-4.226-2.817-1.409-2.817-4.226-2.817-8.451l28.171-174.657c1.409-4.226 5.634-8.451 9.86-8.451h576.088c5.634 0 9.86 4.226 9.86 8.451l28.171 174.657c0 4.226 0 7.043-2.817 8.451zM605.667 336.022h-559.186l-25.354 154.938h608.484l-23.945-154.938zM326.779 752.946c57.75 0 102.823 46.481 102.823 102.823 0 57.75-46.481 104.231-102.823 104.231-57.75 0-104.231-46.481-104.231-104.231 0-56.341 46.481-102.823 104.231-102.823zM326.779 940.281c46.481 0 83.103-38.030 83.103-83.103 0-46.481-38.030-83.103-83.103-83.103-46.481 0-83.103 38.030-83.103 83.103-1.409 45.073 36.622 83.103 83.103 83.103zM331.004 731.818c-2.817 0-4.226 0-4.226 0s-1.409 0-4.226 0c-5.634 0-16.902-1.409-21.128-7.043-4.226-8.451 8.451-36.622 25.354-36.622 15.494 0 29.579 28.171 25.354 36.622-4.226 5.634-15.494 7.043-21.128 7.043zM326.779 702.239c-2.817 0-9.86 9.86-11.268 15.494 1.409 0 4.226 0 7.043 0 1.409 0 2.817 0 2.817 0h2.817c0 0 1.409 0 2.817 0 2.817 0 5.634 0 7.043 0-2.817-7.043-8.451-15.494-11.268-15.494zM566.228 274.047h-480.308c-2.817 0-5.634-1.409-7.043-4.226s-2.817-5.634-2.817-8.451l57.75-316.919c1.409-4.226 5.634-8.451 9.86-8.451h366.217c4.226 0 8.451 2.817 9.86 8.451l56.341 316.919c0 2.817 0 5.634-2.817 8.451-1.409 2.817-4.226 4.226-7.043 4.226zM501.436-42.872h-349.315l-53.524 297.199h456.363l-53.524-297.199zM553.552 568.429c-1.409 11.268-18.311 104.231-35.213 126.768v0c-30.988 38.030-125.359 35.213-129.585 35.213h-4.226l-36.622-81.695-2.817 29.579h-38.030l-2.817-30.988-36.622 81.695h-4.226c-4.226 0-98.597 4.226-129.585-35.213-18.311-21.128-33.805-115.499-35.213-126.768l-1.409-8.451h457.772l-1.409 9.86zM114.091 574.063c5.634 32.396 19.719 97.188 30.988 111.274 23.945 28.171 94.371 29.579 114.091 29.579l56.341-123.95 5.634 71.835h12.677l5.634-71.835 56.341 123.95c28.171 0 92.963-4.226 114.091-29.579 11.268-14.085 25.354-78.878 30.988-111.274h-426.784z" />
<glyph unicode="&#xe91d;" glyph-name="cumpleanos" horiz-adv-x="1162" d="M85.333 212.317c-4.063 2.032-8.127 4.063-12.19 6.095-8.127 4.063-16.254 2.032-20.317-6.095-4.063-6.095-2.032-16.254 6.095-20.317 4.063-2.032 8.127-4.063 14.222-6.095 2.032 0 4.063-2.032 6.095-2.032 6.095 0 10.159 4.063 12.19 8.127 4.063 8.127 0 16.254-6.095 20.317zM881.778 159.492l-14.222-2.032c-8.127-2.032-14.222-10.159-14.222-16.254 2.032-8.127 8.127-12.19 14.222-12.19 0 0 2.032 0 2.032 0l14.222 2.032c8.127 2.032 14.222 8.127 12.19 16.254 0 8.127-8.127 12.19-14.222 12.19zM979.302 177.778l-14.222-4.063c-8.127-2.032-12.19-10.159-10.159-18.286 2.032-6.095 8.127-12.19 14.222-12.19 2.032 0 2.032 0 4.063 0l14.222 4.063c8.127 2.032 12.19 10.159 10.159 18.286-2.032 10.159-10.159 14.222-18.286 12.19zM1072.762 210.286c-4.063-2.032-8.127-4.063-12.19-6.095-8.127-2.032-10.159-12.19-8.127-18.286s8.127-8.127 14.222-8.127c2.032 0 4.063 0 6.095 2.032 4.063 2.032 10.159 4.063 14.222 6.095 8.127 4.063 10.159 12.19 8.127 18.286-6.095 6.095-14.222 8.127-22.349 6.095zM780.19 147.302l-14.222-2.032c-8.127 0-14.222-8.127-14.222-16.254s6.095-14.222 14.222-14.222c0 0 0 0 2.032 0l14.222 2.032c8.127 0 14.222 8.127 12.19 16.254 2.032 8.127-6.095 14.222-14.222 14.222zM1147.937 340.317h-4.063v111.746c0 71.111-144.254 107.683-239.746 123.937v160.508c0 20.317-20.317 36.571-48.762 40.635v42.667c18.286 6.095 32.508 24.381 32.508 44.698s-26.413 73.143-34.54 87.365c-2.032 6.095-6.095 8.127-12.19 8.127s-10.159-2.032-12.19-8.127c-8.127-16.254-34.54-67.048-34.54-87.365s14.222-38.603 32.508-44.698v-42.667c-28.444-4.063-48.762-20.317-48.762-40.635v-144.254c-42.667 4.063-87.365 6.095-132.063 8.127v65.016c0 20.317-20.317 36.571-48.762 40.635v42.667c18.286 6.095 32.508 24.381 32.508 44.698s-26.413 73.143-34.54 87.365c-4.063 10.159-20.317 10.159-26.413 0-8.127-16.254-34.54-67.048-34.54-87.365s14.222-38.603 32.508-44.698v-42.667c-28.444-4.063-48.762-20.317-48.762-40.635v-65.016c-44.698-2.032-89.397-4.063-132.063-8.127v144.254c0 20.317-20.317 36.571-48.762 40.635v42.667c18.286 6.095 32.508 24.381 32.508 44.698s-26.413 73.143-34.54 87.365c-4.063 10.159-20.317 10.159-26.413 0-8.127-16.254-34.54-67.048-34.54-87.365s14.222-38.603 32.508-44.698v-42.667c-28.444-4.063-48.762-20.317-48.762-40.635v-160.508c-95.492-16.254-239.746-54.857-239.746-123.937v-109.714h-4.063c-8.127 0-14.222-6.095-14.222-14.222v-125.968c0-14.222 6.095-28.444 18.286-40.635v-75.175c0-97.524 290.54-150.349 562.794-150.349s562.794 52.825 562.794 150.349v73.143c12.19 12.19 18.286 26.413 18.286 40.635v125.968c0 8.127-6.095 14.222-14.222 14.222zM822.857 864.508c0 6.095 8.127 26.413 18.286 48.762 10.159-22.349 18.286-42.667 18.286-48.762 0-10.159-8.127-18.286-18.286-18.286s-18.286 8.127-18.286 18.286zM806.603 736.508c0 4.063 8.127 10.159 20.317 12.19v-4.063c0-8.127 6.095-14.222 14.222-14.222s14.222 6.095 14.222 14.222v4.063c12.19-2.032 20.317-8.127 20.317-12.19v-6.095c0-4.063-12.19-14.222-34.54-14.222s-34.54 10.159-34.54 14.222v6.095zM806.603 693.841c10.159-4.063 22.349-6.095 34.54-6.095s24.381 2.032 34.54 6.095v-203.175c-4.063-2.032-16.254-6.095-34.54-6.095s-30.476 4.063-34.54 6.095v203.175zM562.794 793.397c0 6.095 8.127 26.413 18.286 48.762 10.159-22.349 18.286-42.667 18.286-48.762 0-10.159-8.127-18.286-18.286-18.286-10.159 2.032-18.286 10.159-18.286 18.286zM546.54 665.397c0 4.063 8.127 8.127 20.317 12.19v-4.063c0-8.127 6.095-14.222 14.222-14.222s14.222 6.095 14.222 14.222v4.063c12.19-2.032 20.317-8.127 20.317-12.19v-6.095c0-4.063-12.19-14.222-34.54-14.222s-34.54 10.159-34.54 14.222v6.095zM546.54 624.762c10.159-4.063 22.349-6.095 34.54-6.095s24.381 2.032 34.54 6.095v-203.175c-4.063-2.032-16.254-6.095-34.54-6.095s-30.476 4.063-34.54 6.095v203.175zM302.73 864.508c0 6.095 8.127 26.413 18.286 48.762 10.159-22.349 18.286-42.667 18.286-48.762 0-10.159-8.127-18.286-18.286-18.286s-18.286 8.127-18.286 18.286zM286.476 736.508c0 4.063 8.127 10.159 20.317 12.19v-4.063c0-8.127 6.095-14.222 14.222-14.222s14.222 6.095 14.222 14.222v4.063c12.19-2.032 20.317-8.127 20.317-12.19v-6.095c0-4.063-12.19-14.222-34.54-14.222s-34.54 10.159-34.54 14.222v6.095zM286.476 693.841c10.159-4.063 22.349-6.095 34.54-6.095s24.381 2.032 34.54 6.095v-203.175c-4.063-2.032-16.254-6.095-34.54-6.095s-30.476 4.063-34.54 6.095v203.175zM258.032 545.524v-60.952c0-2.032 0-4.063 2.032-6.095 6.095-16.254 34.54-24.381 62.984-24.381 26.413 0 56.889 6.095 62.984 24.381 0 2.032 2.032 4.063 2.032 6.095v79.238c42.667 4.063 87.365 6.095 132.063 8.127v-156.444c0-2.032 0-4.063 2.032-6.095 6.095-16.254 34.54-24.381 62.984-24.381 26.413 0 56.889 6.095 62.984 24.381 0 2.032 2.032 4.063 2.032 6.095v156.444c44.698-2.032 89.397-4.063 132.063-8.127v-79.238c0-2.032 0-4.063 2.032-6.095 6.095-16.254 34.54-24.381 62.984-24.381 26.413 0 56.889 6.095 62.984 24.381 0 2.032 2.032 4.063 2.032 6.095v60.952c144.254-26.413 209.27-67.048 209.27-95.492 0-56.889-219.429-121.905-534.349-121.905s-540.444 65.016-540.444 123.937c0 28.444 67.048 67.048 211.302 93.46zM46.73 401.27c79.238-65.016 312.889-99.556 534.349-99.556s453.079 34.54 534.349 99.556v-103.619c-58.921-50.794-262.095-95.492-534.349-95.492s-473.397 44.698-534.349 93.46v105.651zM1115.429 86.349c0-56.889-219.429-121.905-534.349-121.905s-534.349 65.016-534.349 121.905v50.794c95.492-60.952 321.016-91.429 534.349-91.429s438.857 30.476 534.349 91.429v-50.794zM1133.714 263.111c0-2.032 0-6.095-2.032-8.127-2.032-4.063 0-10.159 2.032-14.222v-40.635c0-8.127-4.063-16.254-12.19-24.381-2.032 0-2.032-2.032-4.063-2.032-54.857-50.794-260.063-99.556-536.381-99.556s-481.524 48.762-536.381 99.556c0 2.032-2.032 2.032-4.063 2.032-8.127 8.127-12.19 16.254-12.19 24.381v75.175c81.27-67.048 323.048-103.619 552.635-103.619 219.429 0 451.048 32.508 542.476 95.492 2.032-2.032 4.063-2.032 6.095-2.032s2.032 0 4.063 0v-2.032zM377.905 147.302l-14.222 2.032c-8.127 0-14.222-4.063-16.254-12.19 0-8.127 4.063-14.222 12.19-16.254l14.222-2.032c0 0 0 0 2.032 0 8.127 0 14.222 6.095 14.222 12.19 0 8.127-4.063 14.222-12.19 16.254zM276.317 159.492l-14.222 2.032c-8.127 2.032-16.254-4.063-16.254-12.19-2.032-8.127 4.063-16.254 12.19-16.254l14.222-2.032c0 0 2.032 0 2.032 0 6.095 0 12.19 6.095 14.222 12.19 2.032 8.127-4.063 14.222-12.19 16.254zM178.794 179.81l-14.222 4.063c-8.127 2.032-16.254-2.032-18.286-10.159s2.032-16.254 10.159-18.286l14.222-4.063c2.032 0 2.032 0 4.063 0 6.095 0 12.19 4.063 14.222 10.159 2.032 8.127-2.032 16.254-10.159 18.286zM680.635 139.175h-14.222c-8.127 0-14.222-6.095-14.222-14.222s6.095-14.222 14.222-14.222v0h14.222c8.127 0 14.222 8.127 14.222 14.222 0 8.127-6.095 16.254-14.222 14.222zM579.048 137.143h-14.222c-8.127 0-14.222-6.095-14.222-14.222s6.095-14.222 14.222-14.222h14.222c8.127 0 14.222 6.095 14.222 14.222s-6.095 14.222-14.222 14.222zM477.46 139.175h-14.222c-8.127 0-14.222-6.095-16.254-14.222 0-8.127 6.095-14.222 14.222-16.254h14.222c0 0 0 0 0 0 8.127 0 14.222 6.095 14.222 14.222 2.032 10.159-4.063 16.254-12.19 16.254z" />
<glyph unicode="&#xe91e;" glyph-name="graduaciones" horiz-adv-x="1320" d="M364.209 384.357c3.029 0 9.089 1.514 13.635 3.029 31.822 10.604 77.277 19.702 128.801 24.248 43.94 4.546 90.921 7.575 140.921 7.575s98.496-3.029 140.921-7.575c51.521-6.060 95.464-13.635 128.801-24.248 1.514 0 3.029-1.514 4.546-1.514 3.029 0 7.575-1.514 10.604-1.514 1.514 0 3.029 1.514 4.546 3.029 1.514 6.060 0 10.604-3.029 15.151-1.514 1.514-3.029 3.029-6.060 4.546-12.12 4.546-25.762 7.575-40.911 10.604-27.277 6.060-60.613 12.12-95.464 15.151-43.94 4.546-92.436 7.575-142.436 7.575s-98.496-3.029-142.436-7.575c-34.851-3.029-68.188-9.089-95.464-15.151-15.151-3.029-28.791-7.575-40.911-10.604-3.029-1.514-4.546-3.029-6.060-4.546-3.029-4.546-6.060-9.089-3.029-15.151-1.514-1.514 1.514-3.029 3.029-3.029zM786.98 282.832c-43.94 4.546-90.921 6.060-139.407 6.060s-95.464-1.514-139.407-6.060c-122.741-12.12-212.138-40.911-212.138-66.673 0-34.851 143.95-74.248 351.545-74.248s351.545 39.397 351.545 74.248c0 25.762-89.404 54.553-212.138 66.673zM647.567 157.061c-225.782 0-333.365 43.94-336.396 57.585 3.029 10.604 63.643 39.397 198.504 53.038 43.94 4.546 89.404 6.060 137.89 6.060s93.95-1.514 137.89-6.060c136.376-13.635 196.989-42.426 198.504-51.521-3.029-15.151-110.613-59.099-336.396-59.099zM1190.046 364.66c0 13.635-6.060 25.762-16.668 33.337v45.457l107.585 50.004-633.395 290.939-633.395-290.939 250.021-115.159v-163.652c0-103.039 366.701-104.554 381.852-104.554s383.367 3.029 383.367 104.554v163.652l96.979 45.457v-25.762c-10.604-7.575-16.668-19.702-16.668-33.337 0-12.12 6.060-24.248 16.668-31.822l-28.791-177.287h104.554l-28.791 177.287c10.604 7.575 16.668 19.702 16.668 31.822zM1185.497 170.703h-69.702l27.277 171.227-4.546 3.029c-7.575 4.546-13.635 12.12-13.635 21.216s4.546 18.185 13.635 21.216l4.546 1.514v57.585l-128.801-57.585v-172.743c0-57.585-189.414-89.404-366.701-89.404s-366.701 31.822-366.701 89.404v172.743l-228.811 106.070 595.512 272.751 597.029-274.268-86.374-39.397v-65.159l4.546-1.514c7.575-4.546 13.635-12.12 13.635-21.216s-4.546-16.668-13.635-21.216l-4.546-3.029 27.277-171.227z" />
<glyph unicode="&#xe91f;" glyph-name="icon_otros" horiz-adv-x="549" d="M488.6 233.653l-46.801 86.113c63.649 54.289 106.706 166.611 106.706 265.828 0 131.042-82.369 235.876-185.331 235.876-3.744 0-7.488 0-13.104 0-28.080 84.241-93.601 138.53-164.739 138.53-102.962 0-185.331-106.706-185.331-235.876 0-99.218 43.057-211.539 106.706-265.828l-46.801-86.113 89.857 24.336 18.72-22.464c0-28.080 13.104-61.777 35.569-89.857 29.952-41.185 37.441-101.090 14.976-132.914l-46.801-65.521 18.72-13.104 46.801 65.521c16.848 24.336 22.464 61.777 13.104 99.218l78.625 22.464 18.72-22.464c0-28.080 13.104-61.777 35.569-89.857 29.952-41.185 37.441-101.090 14.976-132.914l-46.801-65.521 18.72-13.104 46.801 65.521c28.080 39.313 20.592 112.322-14.976 160.995-14.976 20.592-24.336 43.057-28.080 63.649l26.208 33.697 87.985-26.208zM365.046 799.005c87.985 0 160.995-95.473 160.995-213.411 0-119.81-74.881-273.316-160.995-273.316-84.241 0-160.995 153.506-160.995 273.316 0 117.938 71.137 213.411 160.995 213.411zM24.336 724.124c0 117.938 71.137 213.411 160.995 213.411 61.777 0 116.066-46.801 144.146-117.938-86.113-24.336-149.762-119.81-149.762-234.004 0-43.057 9.36-89.857 24.336-132.914-5.616-1.872-13.104-3.744-18.72-3.744-86.113 0-160.995 153.506-160.995 275.188zM157.25 424.6l-48.673-13.104 18.72 33.697c18.72-11.232 37.441-18.72 58.033-18.72 9.36 0 18.72 1.872 28.080 3.744 1.872-1.872 1.872-3.744 3.744-7.488l-3.744 1.872-26.208-33.697-29.952 33.697zM247.108 246.757c-5.616 18.72-14.976 37.441-26.208 54.289-14.976 20.592-24.336 43.057-28.080 63.649l26.208 33.697 9.36-1.872c16.848-29.952 35.569-56.161 58.033-74.881l-39.313-74.881zM365.046 254.245l-26.208 31.824-48.673-13.104 18.72 31.824c18.72-11.232 37.441-18.72 58.033-18.72s39.313 7.488 58.033 18.72l18.72-31.824-52.417 13.104-26.208-31.824z" />
<glyph unicode="&#xe920;" glyph-name="quinceaneras" horiz-adv-x="1451" d="M1169.965 81.965h-884.772c-8.982 0-15.719-6.737-15.719-15.719v-114.526c0-8.982 6.737-15.719 15.719-15.719h884.772c8.982 0 15.719 6.737 15.719 15.719v114.526c0 8.982-6.737 15.719-15.719 15.719zM1154.246-32.561h-851.088v80.842h851.088v-80.842zM1376.561 847.719c-40.421 0-74.105-33.684-74.105-76.351 0-20.211 6.737-35.93 20.211-49.404l-314.386-235.789-47.158 325.614c38.175 2.246 67.368 35.93 67.368 74.105 0 40.421-33.684 74.105-74.105 74.105s-74.105-33.684-74.105-74.105c0-26.947 15.719-51.649 38.175-65.123l-193.123-296.421-186.386 296.421c22.456 13.474 38.175 35.93 38.175 65.123 0 40.421-33.684 74.105-74.105 74.105-42.667 0-76.351-33.684-76.351-74.105 0-38.175 31.439-71.86 69.614-74.105l-47.158-321.123-316.632 235.789c11.228 13.474 15.719 29.193 15.719 47.158 0 40.421-33.684 74.105-74.105 74.105s-74.105-33.684-74.105-76.351c0-40.421 33.684-74.105 74.105-74.105 8.982 0 17.965 2.246 24.702 4.491l163.93-538.947c2.246-6.737 8.982-11.228 15.719-11.228h900.491c6.737 0 13.474 4.491 15.719 11.228l163.93 538.947c6.737-2.246 13.474-2.246 20.211-2.246 40.421 0 74.105 33.684 74.105 74.105-2.246 40.421-33.684 74.105-76.351 74.105zM74.105 730.947c-22.456 0-42.667 17.965-42.667 42.667 0 22.456 17.965 42.667 42.667 42.667 22.456 0 42.667-17.965 42.667-42.667s-20.211-42.667-42.667-42.667zM911.719 885.895c0 22.456 17.965 42.667 42.667 42.667 22.456 0 42.667-17.965 42.667-42.667 0-22.456-17.965-42.667-42.667-42.667-22.456 0-42.667 20.211-42.667 42.667zM460.351 885.895c0 22.456 17.965 42.667 42.667 42.667 22.456 0 42.667-17.965 42.667-42.667 0-22.456-17.965-42.667-42.667-42.667s-42.667 20.211-42.667 42.667zM1165.474 183.018h-875.789l-150.456 498.526 312.14-231.298c4.491-2.246 11.228-4.491 15.719-2.246s8.982 6.737 8.982 13.474l47.158 323.368 188.632-296.421c2.246-4.491 8.982-6.737 13.474-6.737 0 0 0 0 0 0 4.491 0 11.228 2.246 13.474 6.737l193.123 296.421 47.158-327.86c0-4.491 4.491-11.228 8.982-13.474s11.228-2.246 15.719 2.246l309.895 233.544-148.211-496.281zM1376.561 730.947c-22.456 0-42.667 17.965-42.667 42.667 0 22.456 17.965 42.667 42.667 42.667 22.456 0 42.667-17.965 42.667-42.667s-17.965-42.667-42.667-42.667z" />
<glyph unicode="&#xe921;" glyph-name="showers" horiz-adv-x="749" d="M746.918 801.38c4.016 4.016 4.016 10.039 2.008 16.063-2.008 4.016-8.031 8.031-12.047 8.031h-170.667l86.337 112.439c4.016 6.024 4.016 16.063-2.008 20.078s-16.063 4.016-20.078-2.008l-98.384-128.502h-518.024c-6.024 0-10.039-4.016-12.047-8.031-2.008-8.031-2.008-14.055 0-18.071l359.404-465.82v-371.451h-122.478c-8.031 0-14.055-6.024-14.055-14.055s6.024-14.055 14.055-14.055h273.067c8.031 0 14.055 6.024 14.055 14.055s-6.024 14.055-14.055 14.055h-122.478v371.451l357.396 465.82zM375.467 365.678l-331.294 431.686h461.804l-66.259-86.337c0 0-2.008-2.008-2.008-4.016h-289.129l226.886-295.153 226.886 295.153h-128.502l68.267 90.353h164.643l-331.294-431.686zM560.188 686.933l-184.722-240.941-184.722 240.941h369.443z" />
<glyph unicode="&#xe922;" glyph-name="agenda" d="M782.768 920.615c0 2.462-2.462 4.924-4.924 7.385l-2.462 2.462c-12.307 17.231-34.461 27.076-54.154 27.076h-499.691c-29.538 0-49.23-22.154-49.23-56.616v-829.537h2.462c4.924-29.538 32-56.616 61.538-56.616h196.923c0-19.692 2.462-36.923 7.385-56.616l4.924-19.692 14.769 12.307c7.385 4.924 14.769 12.307 22.154 17.231 9.845-7.385 19.692-12.307 29.538-19.692l24.616-14.769-7.385 29.538c-4.924 17.231-4.924 34.461-4.924 49.23h273.23c32 0 56.616 22.154 56.616 54.154v735.998l-71.385 118.153zM499.693-12.306c-4.924 2.462-9.845 4.924-12.307 9.845l-7.385 4.924-7.385-4.924c-4.924-2.462-7.385-7.385-12.307-9.845-2.462 24.616-2.462 51.692 2.462 76.308h39.385c-4.924-27.076-4.924-51.692-2.462-76.308zM827.077 68.924c0-17.231-12.307-29.538-32-29.538h-270.768c0 7.385 2.462 14.769 2.462 19.692h29.538v24.616h-152.615v-24.616h32c0-7.385-2.462-14.769-2.462-19.692h-199.383c-17.231 0-36.923 19.692-36.923 39.385v2.462c0 17.231 17.231 32 36.923 32h497.229v24.616h-497.229c-14.769 0-27.076-4.924-36.923-12.307v777.844c0 7.385 2.462 32 24.616 32h502.153c12.307 0 27.076-7.385 34.461-17.231l4.924-7.385c0-2.462 0-4.924 0-4.924v-721.229c0-17.231-14.769-41.847-32-41.847v-24.616c32 0 56.616 36.923 56.616 66.461v679.384l39.385-68.923v-726.152z" />
<glyph unicode="&#xe923;" glyph-name="invitados" d="M946.741 612.992l-10.475 7.858-7.858-10.475c-20.952-34.046-57.617-54.997-96.901-54.997s-75.949 18.332-96.901 47.14l-7.858 10.475-10.475-7.858c-47.14-39.284-73.33-91.662-75.949-146.66-5.238 2.619-7.858 7.858-13.094 10.475l-13.094 5.238-7.858-10.475c-20.952-34.046-57.617-54.997-96.901-54.997s-75.949 18.332-99.52 47.14l-7.858 10.475-10.475-7.858c-2.619-2.619-5.238-5.238-7.858-7.858v2.619c0 54.997-26.19 109.995-75.949 149.279l-10.475 7.858-7.858-10.475c-20.952-28.807-60.236-47.14-96.901-47.14-39.284 0-73.33 20.952-96.901 54.997l-7.858 10.475-10.475-7.858c-49.759-34.046-78.568-91.662-78.568-157.135v-248.797h316.89v-144.040h384.982v144.040h319.509v248.797c2.619 68.091-26.19 125.708-73.33 159.754zM318.201 233.249h-290.7v222.609c0 52.378 20.952 99.52 54.997 128.327 26.19-34.046 65.472-54.997 109.995-54.997 41.903 0 83.805 18.332 109.995 47.14 36.665-34.046 54.997-75.949 54.997-120.47v-28.807h2.619c-28.807-34.046-44.522-75.949-44.522-117.852v-75.949zM676.992 86.589h-332.603v222.609c0 44.522 20.952 86.424 54.997 120.47 26.19-28.807 68.091-47.14 109.995-47.14 44.522 0 83.805 20.952 109.995 54.997 36.665-28.807 54.997-75.949 54.997-128.327v-222.609zM996.501 233.249h-293.319v75.949c0 47.14-13.094 86.424-39.284 120.47v26.19c0 44.522 20.952 86.424 54.997 120.47 26.19-28.807 68.091-47.14 109.995-47.14 44.522 0 83.805 20.952 109.995 54.997 36.665-28.807 54.997-75.949 54.997-128.327v-222.609zM831.509 594.66c41.903 0 78.568 20.952 102.137 54.997 13.094 18.332 18.332 41.903 18.332 65.472 0 65.472-54.997 120.47-120.47 120.47s-120.47-54.997-120.47-120.47c0-26.19 7.858-52.378 23.571-73.33 26.19-31.427 60.236-47.14 96.901-47.14zM831.509 806.792c52.378 0 94.281-41.903 94.281-94.281 0-18.332-5.238-36.665-15.713-49.759-18.332-26.19-47.14-44.522-78.568-44.522-28.807 0-57.617 13.094-75.949 36.665-13.094 15.713-18.332 36.665-18.332 57.617 0 52.378 41.903 94.281 94.281 94.281zM192.491 594.66c36.665 0 73.33 18.332 94.281 47.14 15.713 20.952 23.571 47.14 23.571 73.33 0 65.472-54.997 120.47-120.47 120.47s-120.47-54.997-120.47-120.47c0-23.571 7.858-44.522 18.332-65.472 26.19-34.046 62.855-54.997 104.756-54.997zM192.491 806.792c52.378 0 94.281-41.903 94.281-94.281 0-20.952-7.858-39.284-18.332-57.617-18.332-23.571-44.522-36.665-75.949-36.665s-62.855 15.713-78.568 44.522c-10.475 15.713-15.713 31.427-15.713 49.759 0 52.378 41.903 94.281 94.281 94.281zM512 448c41.903 0 78.568 20.952 102.137 54.997 13.094 18.332 18.332 41.903 18.332 65.472 0 65.472-54.997 120.47-120.47 120.47s-120.47-54.997-120.47-120.47c0-26.19 7.858-52.378 23.571-73.33 23.571-28.807 60.236-47.14 96.901-47.14zM512 662.751c52.378 0 94.281-41.903 94.281-94.281 0-18.332-5.238-36.665-15.713-49.759-18.332-26.19-47.14-44.522-78.568-44.522-28.807 0-57.617 13.094-75.949 36.665-13.094 15.713-18.332 36.665-18.332 57.617 0 52.378 41.903 94.281 94.281 94.281z" />
<glyph unicode="&#xe924;" glyph-name="presupuesto" d="M593.317 463.058h-66.259v406.588h66.259c111.436 0 201.787-90.353 201.787-201.787h33.128c0 129.506-105.412 234.918-234.918 234.918h-66.259v57.223h-33.128v-57.223h-66.259c-129.506 0-234.918-105.412-234.918-234.918s105.412-234.918 234.918-234.918h66.259v-406.588h-66.259c-111.436 0-201.787 90.353-201.787 201.787h-33.128c0-129.506 105.412-234.918 234.918-234.918h66.259v-57.223h33.128v57.223h66.259c129.506 0 234.918 105.412 234.918 234.918s-105.412 234.918-234.918 234.918zM430.683 463.058c-111.436 0-201.787 90.353-201.787 201.787s90.353 201.787 201.787 201.787h66.259v-406.588h-66.259zM593.317 26.354h-66.259v406.588h66.259c111.436 0 201.787-90.353 201.787-201.787 0-114.448-90.353-204.799-201.787-204.799z" />
<glyph unicode="&#xe925;" glyph-name="proveedores" d="M175.043 290.461c-8.751-8.751-13.128-21.881-13.128-32.821 0-28.444 21.881-50.325 50.325-50.325s50.325 24.068 50.325 50.325c0 13.128-4.376 24.068-13.128 32.821-17.504 21.881-54.7 21.881-74.393 0zM214.427 227.008c-17.504 0-30.632 13.128-30.632 30.632 0 8.751 4.376 15.316 6.565 19.693 6.565 6.565 13.128 10.94 21.881 10.94s17.504-4.376 21.881-10.94c4.376-4.376 6.565-10.94 6.565-19.693 2.188-17.504-10.94-30.632-26.256-30.632zM986.804 347.351l-50.325 242.872c0 4.376-2.188 6.565-6.565 6.565l-277.881 122.53c-2.188 2.188-6.565 2.188-10.94 0-2.188-2.188-4.376-4.376-4.376-8.751v-426.667c0-6.565 4.376-10.94 10.94-10.94h45.949c0-6.565-2.188-10.94-2.188-15.316 0-63.453 50.325-113.778 113.778-113.778s113.778 50.325 113.778 113.778c0 4.376 0 10.94-2.188 15.316h70.016c19.693 0 37.197 17.504 37.197 37.197-2.188 19.693-17.504 37.197-37.197 37.197zM805.197 165.743c-50.325 0-91.897 41.572-91.897 91.897 0 6.565 2.188 15.316 4.376 24.068 10.94 39.384 48.137 67.83 87.521 67.83s78.769-28.444 87.521-67.83c0 0 0 0 0 0 2.188-8.751 4.376-17.504 4.376-24.068 0-52.513-41.572-91.897-91.897-91.897zM986.804 294.838h-74.393c0 2.188-2.188 4.376-2.188 4.376 0 2.188-2.188 4.376-4.376 6.565s-2.188 6.565-4.376 8.751c-2.188 2.188-2.188 4.376-4.376 6.565s-4.376 4.376-6.565 8.751c-2.188 2.188-4.376 4.376-4.376 6.565-2.188 2.188-4.376 4.376-6.565 6.565s-4.376 4.376-6.565 4.376c-2.188 2.188-6.565 4.376-8.751 6.565s-4.376 2.188-6.565 4.376c-2.188 2.188-6.565 2.188-8.751 4.376-2.188 0-4.376 2.188-6.565 2.188-4.376 2.188-8.751 2.188-10.94 2.188s-4.376 0-6.565 2.188c-6.565 0-13.128 2.188-17.504 2.188s-13.128 0-17.504-2.188c-2.188 0-4.376 0-6.565-2.188-4.376 0-8.751-2.188-10.94-2.188s-4.376-2.188-6.565-2.188-6.565-2.188-8.751-4.376c-2.188-2.188-4.376-2.188-6.565-4.376s-6.565-4.376-8.751-6.565c-2.188-2.188-4.376-2.188-6.565-4.376s-4.376-4.376-6.565-6.565c-2.188-2.188-4.376-4.376-4.376-6.565-2.188-2.188-4.376-4.376-6.565-8.751-6.565 0-8.751-4.376-8.751-6.565-2.188-2.188-4.376-6.565-4.376-8.751-2.188-2.188-2.188-4.376-4.376-6.565 0-2.188-2.188-4.376-2.188-4.376h-39.384v400.411l258.188-115.965 50.325-245.060c0-4.376 4.376-8.751 10.94-8.751h8.751c8.751 0 15.316-6.565 15.316-15.316s-6.565-15.316-15.316-15.316zM894.906 557.402c0 2.188-2.188 6.565-6.565 6.565l-196.923 87.521c-2.188 2.188-6.565 2.188-10.94 0-2.188-2.188-4.376-4.376-4.376-8.751v-153.162c0-6.565 4.376-10.94 10.94-10.94h214.427c2.188 0 6.565 2.188 8.751 4.376s2.188 6.565 2.188 8.751l-17.504 65.641zM697.983 500.513v124.718l177.23-78.769 13.128-45.949h-190.36zM606.086 752.137h-536.069c-6.565 0-10.94-4.376-10.94-10.94v-396.034h-21.881c-19.693 0-37.197-17.504-37.197-37.197s17.504-37.197 37.197-37.197h63.453c0-6.565-2.188-10.94-2.188-15.316 0-63.453 50.325-113.778 113.778-113.778s113.778 50.325 113.778 113.778c0 4.376 0 10.94-2.188 15.316h282.257c6.565 0 10.94 4.376 10.94 10.94v459.487c0 6.565-4.376 10.94-10.94 10.94zM214.427 165.743c-50.325 0-91.897 41.572-91.897 91.897 0 6.565 2.188 15.316 4.376 24.068 10.94 39.384 48.137 67.83 87.521 67.83s78.769-28.444 87.521-67.83c2.188-8.751 4.376-17.504 4.376-24.068 0-52.513-41.572-91.897-91.897-91.897zM597.333 294.838h-277.881c0 2.188-2.188 4.376-2.188 4.376 0 2.188-2.188 4.376-4.376 6.565s-2.188 6.565-4.376 8.751c-2.188 2.188-2.188 4.376-4.376 6.565s-4.376 4.376-6.565 8.751c-2.188 2.188-4.376 4.376-4.376 6.565-2.188 2.188-4.376 4.376-6.565 6.565s-4.376 4.376-6.565 4.376c-2.188 2.188-6.565 4.376-8.751 6.565s-4.376 2.188-6.565 4.376c-2.188 2.188-6.565 2.188-8.751 4.376-2.188 0-4.376 2.188-6.565 2.188-4.376 2.188-6.565 2.188-10.94 2.188-2.188 0-4.376 0-6.565 2.188-6.565 0-13.128 2.188-17.504 2.188s-13.128 0-17.504-2.188c-2.188 0-4.376 0-6.565-2.188-4.376 0-8.751-2.188-10.94-2.188s-4.376-2.188-6.565-2.188c-2.188-2.188-6.565-2.188-8.751-4.376s-4.376-2.188-6.565-4.376c-2.188-2.188-6.565-4.376-8.751-6.565s-4.376-4.376-6.565-4.376c-2.188-2.188-4.376-4.376-6.565-6.565s-4.376-4.376-4.376-6.565c-2.188-2.188-4.376-4.376-6.565-8.751-2.188-2.188-2.188-4.376-4.376-6.565s-4.376-6.565-4.376-8.751c-2.188-2.188-2.188-4.376-4.376-6.565 0-2.188-2.188-4.376-2.188-4.376h-70.016c-8.751 0-15.316 6.565-15.316 15.316s6.565 15.316 15.316 15.316h32.821c6.565 0 10.94 4.376 10.94 10.94v393.846h516.376v-435.42zM765.811 290.461c-8.751-8.751-13.128-21.881-13.128-32.821 0-28.444 21.881-50.325 50.325-50.325s50.325 24.068 50.325 50.325c0 13.128-4.376 24.068-13.128 32.821-17.504 21.881-54.7 21.881-74.393 0zM805.197 227.008c-17.504 0-30.632 13.128-30.632 30.632 0 8.751 4.376 15.316 6.565 19.693 6.565 6.565 13.128 10.94 21.881 10.94s17.504-4.376 21.881-10.94c4.376-4.376 6.565-10.94 6.565-19.693 2.188-17.504-10.94-30.632-26.256-30.632z" />
</font>
</defs>
</svg>
