<?xml version="1.0" encoding="utf-8"?>
<!-- Generator: Adobe Illustrator 19.1.0, SVG Export Plug-In . SVG Version: 6.00 Build 0)  -->
<svg version="1.1" id="Layer_1" xmlns="http://www.w3.org/2000/svg" xmlns:xlink="http://www.w3.org/1999/xlink" x="0px" y="0px"
	 viewBox="-459 261 40 40" style="enable-background:new -459 261 40 40;" xml:space="preserve">
<style type="text/css">
	.st0{fill:none;stroke:#1A1A1A;stroke-miterlimit:10;}
	.st1{fill:#EE3470;}
</style>
<g>
	<line class="st0" x1="-424.9" y1="267.2" x2="-429.9" y2="272.3"/>
	<polyline class="st0" points="-427.8,267.3 -424.9,267.3 -424.9,270.2 	"/>
	<path class="st1" d="M-428.4,272.3c-2.9-2.9-7.6-2.9-10.4,0l-1.1,1.1l-1.1-1.1c-2.9-2.9-7.6-2.9-10.4,0c-2.9,2.9-2.9,7.7,0,10.6
		l11.6,11.7l11.6-11.7C-425.6,279.9-425.6,275.2-428.4,272.3z"/>
	<line class="st0" x1="-440" y1="282" x2="-451.5" y2="293.6"/>
	<polyline class="st0" points="-452.4,291.8 -449.5,291.8 -449.5,294.7 	"/>
	<polyline class="st0" points="-450.2,289.6 -447.3,289.6 -447.3,292.5 	"/>
</g>
</svg>
