<?xml version="1.0" encoding="utf-8"?>
<!-- Generator: Adobe Illustrator 19.1.0, SVG Export Plug-In . SVG Version: 6.00 Build 0)  -->
<svg version="1.1" id="Layer_1" xmlns="http://www.w3.org/2000/svg" xmlns:xlink="http://www.w3.org/1999/xlink" x="0px" y="0px"
	 viewBox="-459 261 40 40" style="enable-background:new -459 261 40 40;" xml:space="preserve">
<style type="text/css">
	.st0{fill:#4D4D4D;}
	.st1{fill:#E0CCB8;}
	.st2{fill:#FFFFFF;}
	.st3{fill:none;stroke:#4D4D4D;stroke-miterlimit:10;}
</style>
<g>
	<g>
		<path class="st0" d="M-428.7,283.5c-0.8,1.3-2.2,2.2-3.9,2.2c-1.5,0-3.1-0.7-3.9-1.9c-1.4,1.2-2.6,3-2.6,5v9.2h13v-9.2
			C-426.1,286.6-427,284.6-428.7,283.5z"/>
		<path class="st1" d="M-432.6,276.1c-2.1,0-3.8,1.7-3.8,3.8c0,0.9,0.3,1.7,0.8,2.3c0.7,0.9,1.8,1.5,3.1,1.5c1.4,0,2.6-0.7,3.2-1.8
			c0.4-0.6,0.6-1.3,0.6-2.1C-428.7,277.8-430.4,276.1-432.6,276.1z"/>
	</g>
	<path class="st2" d="M-436.2,264.1h-10.4c-3,0-5.4,2.4-5.4,5.4s2.4,5.4,5.4,5.4h6.5l1.8,1.8l1.8-1.8h0.3c3,0,5.4-2.4,5.4-5.4
		S-433.2,264.1-436.2,264.1z"/>
	<line class="st3" x1="-448" y1="268.5" x2="-436" y2="268.5"/>
	<line class="st3" x1="-448" y1="270.5" x2="-441" y2="270.5"/>
</g>
</svg>
