<?xml version="1.0" encoding="utf-8"?>
<!-- Generated by IcoMoon.io -->
<!DOCTYPE svg PUBLIC "-//W3C//DTD SVG 1.1//EN" "http://www.w3.org/Graphics/SVG/1.1/DTD/svg11.dtd">
<svg version="1.1" xmlns="http://www.w3.org/2000/svg" xmlns:xlink="http://www.w3.org/1999/xlink" width="3878" height="1024" viewBox="0 0 3878 1024">
<path fill="rgb(174, 209, 54)" d="M556.664 817.021c29.413 54.468 65.362 89.328 87.149 79.523s21.787-58.826 3.268-117.651l-90.417 38.128z"></path>
<path fill="rgb(174, 209, 54)" d="M522.894 741.855l22.877 54.468c1.089 3.268 3.268 6.536 4.357 8.715l91.506-39.217 2.179 5.447c-2.179-7.626-5.447-15.251-8.715-22.877l-19.609-46.843-92.596 40.306z"></path>
<path fill="rgb(174, 209, 54)" d="M638.194 898.433l12.013-5.153 36.072 84.094-12.013 5.153-36.072-84.094z"></path>
<path fill="rgb(174, 209, 54)" d="M734.23 981.515c-11.983-8.715-33.77-9.804-54.468-1.089s-34.86 25.055-37.038 40.306l91.506-39.217z"></path>
<path fill="rgb(250, 164, 26)" d="M503.285 817.021c-29.413 54.468-65.362 89.328-87.149 79.523s-21.787-58.826-3.268-117.651l90.417 38.128z"></path>
<path fill="rgb(250, 164, 26)" d="M537.055 741.855l-22.877 54.468c-1.089 3.268-3.268 6.536-4.357 8.715l-91.506-39.217-2.179 5.447c2.179-7.626 5.447-15.251 8.715-22.877l19.609-46.843 92.596 40.306z"></path>
<path fill="rgb(250, 164, 26)" d="M386.051 982.864l-12.019-5.141 35.989-84.131 12.019 5.141-35.989 84.131z"></path>
<path fill="rgb(250, 164, 26)" d="M326.809 981.515c11.983-8.715 33.77-9.804 54.468-1.089s34.86 25.055 37.038 40.306l-91.506-39.217z"></path>
<path fill="rgb(238, 52, 112)" d="M520.715 46.843l-6.536-4.357c-10.894-11.983-25.055-29.413-40.306-35.949-16.34-6.536-37.038-2.179-49.021 10.894-11.983 11.983-9.804 28.323-6.536 44.664 0 0-1.089 4.357-4.357 10.894-6.536 9.804-18.519 18.519-28.323 25.055s-20.698 10.894-32.681 10.894c-9.804 0-19.609-1.089-29.413-2.179-2.179 0-5.447 0-7.626-1.089l22.877 28.323-15.251 6.536c0 0 9.804 18.519 21.787 30.502 10.894 9.804 21.787 19.609 37.038 23.966 19.609 5.447 41.396 3.268 59.915-4.357 5.447-2.179 9.804-5.447 14.162-8.715 11.983-9.804 22.877-21.787 28.323-37.038 4.357-9.804 4.357-20.698 4.357-31.591s0-21.787-1.089-32.681l32.681-33.77zM409.6 164.494c-5.447 1.089-10.894 2.179-15.251 2.179-5.447 0-10.894-1.089-15.251-2.179-3.268-1.089-5.447-4.357-4.357-6.536 1.089-3.268 4.357-5.447 6.536-4.357 7.626 2.179 16.34 2.179 25.055 0 20.698-4.357 35.949-19.609 34.86-34.86 0-3.268 2.179-5.447 5.447-6.536 3.268 0 6.536 2.179 6.536 5.447 2.179 20.698-16.34 40.306-43.574 46.843zM469.515 43.574c-4.357 0-8.715-3.268-8.715-8.715 0-4.357 3.268-8.715 8.715-8.715 4.357 0 7.626 3.268 7.626 8.715s-3.268 8.715-7.626 8.715z"></path>
<path fill="rgb(140, 62, 150)" d="M744.034 105.668c-2.179 0-5.447 1.089-7.626 1.089-9.804 1.089-19.609 2.179-29.413 2.179-11.983-1.089-22.877-4.357-32.681-10.894s-22.877-15.251-28.323-25.055c-3.268-5.447-4.357-10.894-4.357-10.894 3.268-15.251 5.447-31.591-6.536-44.664-13.072-13.072-32.681-17.43-49.021-10.894s-29.413 22.877-40.306 35.949l-6.536 4.357 32.681 33.77c-1.089 10.894-1.089 21.787-1.089 32.681s0 21.787 4.357 31.591c5.447 14.162 16.34 27.234 28.323 37.038 4.357 3.268 9.804 6.536 14.162 8.715 18.519 7.626 41.396 8.715 59.915 4.357 15.251-4.357 26.145-13.072 37.038-23.966 11.983-10.894 21.787-30.502 21.787-30.502l-15.251-6.536 22.877-28.323zM590.434 43.574c-4.357 0-8.715-3.268-8.715-8.715 0-4.357 3.268-8.715 8.715-8.715 4.357 0 7.626 3.268 7.626 8.715 1.089 5.447-3.268 8.715-7.626 8.715zM681.94 164.494c-4.357 1.089-9.804 2.179-15.251 2.179s-10.894-1.089-15.251-2.179c-27.234-6.536-45.753-26.145-43.574-46.843 0-3.268 3.268-5.447 6.536-5.447s5.447 3.268 5.447 6.536c-3.268 14.162 11.983 29.413 33.77 33.77 8.715 2.179 17.43 2.179 25.055 0 3.268-1.089 6.536 1.089 6.536 4.357 1.089 3.268-1.089 6.536-3.268 7.626z"></path>
<path fill="rgb(207, 174, 211)" d="M955.37 907.438l-404.153-404.153 401.974-406.332c5.447-5.447 5.447-15.251 0-20.698s-15.251-5.447-20.698 0l-401.974 406.332-404.153-404.153c-5.447-5.447-15.251-5.447-20.698 0s-5.447 15.251 0 20.698l404.153 404.153-401.974 406.332c-5.447 5.447-5.447 15.251 0 20.698 3.268 3.268 6.536 4.357 10.894 4.357 3.268 0 7.626-1.089 10.894-4.357l401.974-406.332 404.153 404.153c3.268 3.268 6.536 4.357 10.894 4.357 3.268 0 7.626-1.089 10.894-4.357 3.268-5.447 3.268-15.251-2.179-20.698z"></path>
<path fill="rgb(238, 52, 112)" d="M907.438 306.111l21.787 22.877 23.966-22.877v50.111c0 14.162-9.804 26.145-21.787 26.145h-4.357c-11.983 0-21.787-11.983-21.787-26.145v-50.111h2.179z"></path>
<path fill="rgb(238, 52, 112)" d="M927.047 454.264c-3.268 0-6.536-3.268-6.536-6.536 0-4.357-1.089-9.804-2.179-15.251-4.357-14.162-13.072-22.877-19.609-25.055-3.268-1.089-5.447-4.357-5.447-7.626 1.089-3.268 4.357-5.447 7.626-5.447 11.983 3.268 23.966 16.34 29.413 33.77 2.179 6.536 3.268 13.072 3.268 18.519 0 4.357-2.179 6.536-6.536 7.626 0 0 0 0 0 0z"></path>
<path fill="rgb(238, 52, 112)" d="M929.226 454.264c0 0 0 0 0 0-3.268 0-6.536-3.268-6.536-6.536 0-6.536 1.089-11.983 3.268-18.519 5.447-17.43 17.43-30.502 29.413-33.77 3.268-1.089 6.536 1.089 7.626 5.447 1.089 3.268-1.089 6.536-5.447 7.626-6.536 1.089-15.251 10.894-19.609 25.055-1.089 5.447-2.179 9.804-2.179 15.251 0 2.179-3.268 5.447-6.536 5.447z"></path>
<path fill="rgb(238, 52, 112)" d="M929.226 456.443c-3.268 0-6.536-3.268-6.536-6.536v-67.54c0-3.268 3.268-6.536 6.536-6.536s6.536 3.268 6.536 6.536v67.54c0 4.357-3.268 6.536-6.536 6.536z"></path>
<path fill="rgb(174, 209, 54)" d="M1009.838 401.974c9.804 1.089 20.698-6.536 25.055-18.519l16.34-47.932-29.413 14.162-13.072-28.323h-1.089l-16.34 47.932c-4.357 11.983-1.089 23.966 7.626 30.502 0 0 0 0 0 0l-19.609 57.736c-1.089 3.268 0 6.536 3.268 7.626 0 0 0 0 0 0s0 0 0 0 0 0 0 0 1.089 0 1.089 0c0 0 0 0 1.089 0 2.179 0 5.447-1.089 6.536-4.357s3.268-7.626 6.536-10.894c8.715-11.983 19.609-17.43 26.145-17.43 3.268 0 6.536-2.179 7.626-5.447 0-3.268-2.179-6.536-5.447-7.626-7.626-1.089-15.251 2.179-22.877 7.626l6.536-25.055c0 1.089 0 0 0 0z"></path>
<path fill="rgb(174, 209, 54)" d="M878.026 456.443c0 0 0 0 0 0 0-1.089 0-2.179 0-3.268l-19.609-54.468c0 0 0 0 0 0 8.715-5.447 11.983-17.43 7.626-30.502l-16.34-47.932h-1.089l-13.072 28.323-29.413-14.162 16.34 47.932c4.357 11.983 14.162 19.609 25.055 18.519 0 0 0 0 0 1.089l8.715 25.055c-7.626-5.447-16.34-7.626-22.877-7.626-3.268 0-6.536 3.268-5.447 7.626 0 3.268 3.268 6.536 7.626 5.447 6.536-1.089 17.43 5.447 26.145 17.43 2.179 3.268 4.357 7.626 6.536 10.894 1.089 2.179 3.268 4.357 6.536 4.357 1.089 0 2.179 0 2.179 0 1.089-2.179 2.179-5.447 1.089-8.715z"></path>
<path fill="rgb(238, 52, 112)" d="M928.136 455.353c-53.379 0-99.132 10.894-120.919 26.145l7.626 4.357c29.413 8.715 59.915 42.485 77.345 88.238 0 0 0 0 0 0h72.987c17.43-46.843 47.932-80.613 77.345-88.238l8.715-3.268c-21.787-16.34-68.63-27.234-123.098-27.234z"></path>
<path fill="rgb(238, 52, 112)" d="M899.813 600.238h56.647c0 0 1.089 0 1.089 0 1.089-4.357 2.179-8.715 3.268-13.072h-64.272c1.089 5.447 2.179 8.715 3.268 13.072 0 0 0 0 0 0z"></path>
<path fill="rgb(250, 164, 26)" d="M954.281 614.4h-52.289c2.179 16.34 3.268 32.681 1.089 46.843h50.111c-2.179-14.162-1.089-30.502 1.089-46.843z"></path>
<path fill="rgb(238, 52, 112)" d="M242.928 583.898c0 5.415-4.39 9.804-9.804 9.804s-9.804-4.39-9.804-9.804c0-5.415 4.39-9.804 9.804-9.804s9.804 4.39 9.804 9.804z"></path>
<path fill="rgb(193, 151, 199)" d="M132.902 327.898c1.089-1.089 3.268-1.089 4.357-2.179s3.268-1.089 4.357-2.179h-18.519c1.089 2.179 2.179 4.357 3.268 6.536 2.179-1.089 4.357-1.089 6.536-2.179z"></path>
<path fill="rgb(193, 151, 199)" d="M188.46 342.060c0-9.804-8.715-18.519-18.519-18.519h-13.072c-2.179 1.089-4.357 2.179-6.536 3.268l-1.089 1.089c-3.268 1.089-5.447 3.268-8.715 4.357-1.089 1.089-3.268 1.089-4.357 2.179-5.447 2.179-8.715 3.268-8.715 3.268s-1.089 0-1.089 0c-2.179 0-3.268 0-9.804-13.072 0 0 0-1.089-1.089-1.089h-17.43c-9.804 0-18.519 8.715-18.519 18.519v4.357h107.847v-4.357z"></path>
<path fill="rgb(140, 62, 150)" d="M79.523 359.489h107.847v32.681h-107.847v-32.681z"></path>
<path fill="rgb(193, 151, 199)" d="M4.357 550.128c2.179 1.089 3.268 2.179 5.447 2.179 7.626 0 16.34-16.34 16.34-40.306 0 0 0 0 0 0s0 0 0-1.089c0-2.179 1.089-3.268 3.268-3.268 0 0 0 0 0 0 2.179 0 3.268 1.089 3.268 3.268 0 11.983 2.179 23.966 4.357 32.681 2.179 7.626 5.447 10.894 7.626 10.894v0c1.089 0 2.179-1.089 2.179-1.089 4.357-4.357 9.804-19.609 9.804-42.485 0-1.089 0-2.179 1.089-2.179 1.089-1.089 1.089-1.089 2.179-1.089h3.268c2.179 0 3.268 1.089 3.268 3.268 0 11.983 2.179 23.966 4.357 32.681 2.179 7.626 5.447 10.894 7.626 10.894v0c5.447 0 11.983-17.43 11.983-44.664 0-2.179 1.089-3.268 3.268-3.268h3.268c1.089 0 2.179 0 2.179 1.089 1.089 1.089 1.089 1.089 1.089 2.179 0 11.983 2.179 23.966 4.357 32.681 2.179 7.626 5.447 11.983 7.626 11.983v0c5.447 0 11.983-17.43 11.983-44.664 0-1.089 0-2.179 1.089-2.179 1.089-1.089 1.089-1.089 2.179-1.089h3.268c2.179 0 3.268 1.089 3.268 3.268 0 11.983 2.179 23.966 4.357 32.681 2.179 7.626 5.447 11.983 7.626 11.983v0c5.447 0 11.983-17.43 11.983-44.664 0-1.089 0-2.179 1.089-3.268s2.179-1.089 3.268-1.089l4.357 1.089c1.089 0 2.179 2.179 2.179 3.268 0 11.983 2.179 23.966 4.357 32.681 2.179 7.626 5.447 10.894 7.626 10.894 1.089 0 2.179-1.089 2.179-1.089 4.357-4.357 9.804-19.609 9.804-42.485 0-1.089 0-2.179 1.089-2.179 1.089-1.089 1.089-1.089 2.179-1.089h3.268c2.179 0 3.268 1.089 3.268 3.268 0 11.983 2.179 23.966 4.357 32.681 2.179 7.626 5.447 10.894 7.626 10.894 5.447 0 11.983-17.43 11.983-44.664 0-2.179 1.089-3.268 3.268-3.268h3.268c1.089 0 2.179 0 2.179 1.089 1.089 1.089 1.089 1.089 1.089 2.179 0 11.983 2.179 23.966 4.357 32.681 2.179 7.626 5.447 11.983 7.626 11.983v0c2.179 0 5.447-3.268 7.626-11.983 0-1.089 1.089-2.179 2.179-2.179v-21.787c0-15.251-10.894-27.234-25.055-27.234h-204.8c-14.162 0-25.055 11.983-25.055 27.234v31.591c0 0 1.089 0 1.089 1.089z"></path>
<path fill="rgb(248, 174, 198)" d="M143.796 287.591c4.357-4.357 11.983-5.447 17.43-2.179 2.179 1.089 4.357 3.268 5.447 5.447 2.179 4.357 1.089 8.715 0 13.072-3.268 8.715-11.983 13.072-19.609 17.43-4.357 2.179-8.715 4.357-13.072 6.536-5.447 2.179-8.715 3.268-8.715 3.268-1.089 0-5.447-9.804-6.536-10.894-5.447-11.983-8.715-27.234-2.179-39.217 3.268-5.447 8.715-11.983 15.251-8.715 8.715 1.089 9.804 9.804 11.983 15.251z"></path>
<path fill="rgb(140, 62, 150)" d="M204.8 396.528h-138.349c-9.804 0-18.519 8.715-18.519 18.519v72.987h175.387v-74.077c0-9.804-7.626-17.43-18.519-17.43zM84.97 447.728c-5.447 0-9.804-4.357-9.804-9.804s4.357-9.804 9.804-9.804c5.447 0 9.804 4.357 9.804 9.804s-4.357 9.804-9.804 9.804zM132.902 447.728c-5.447 0-9.804-4.357-9.804-9.804s4.357-9.804 9.804-9.804c5.447 0 9.804 4.357 9.804 9.804s-4.357 9.804-9.804 9.804zM178.655 447.728c-5.447 0-9.804-4.357-9.804-9.804s4.357-9.804 9.804-9.804c5.447 0 9.804 4.357 9.804 9.804s-4.357 9.804-9.804 9.804z"></path>
<path fill="rgb(193, 151, 199)" d="M257.089 559.932c-4.357 0-9.804-3.268-14.162-16.34-1.089-4.357-2.179-8.715-3.268-13.072-2.179 16.34-8.715 29.413-17.43 29.413 0 0 0 0 0 0-4.357 0-9.804-3.268-14.162-16.34-1.089-3.268-2.179-7.626-3.268-11.983-2.179 11.983-5.447 20.698-9.804 25.055-2.179 2.179-4.357 3.268-7.626 3.268-4.357 0-9.804-3.268-14.162-16.34-2.179-5.447-3.268-10.894-4.357-17.43-2.179 18.519-8.715 32.681-17.43 32.681 0 0 0 0 0 0-4.357 0-9.804-3.268-14.162-16.34-1.089-3.268-2.179-7.626-3.268-11.983-2.179 16.34-8.715 28.323-17.43 28.323 0 0 0 0 0 0-4.357 0-9.804-3.268-14.162-16.34-1.089-4.357-2.179-8.715-3.268-13.072-2.179 16.34-8.715 29.413-17.43 29.413 0 0 0 0 0 0-4.357 0-9.804-3.268-14.162-16.34-1.089-3.268-2.179-7.626-3.268-11.983-2.179 11.983-5.447 20.698-9.804 25.055-2.179 2.179-4.357 3.268-7.626 3.268 0 0 0 0 0 0-4.357 0-9.804-3.268-14.162-16.34-1.089-4.357-2.179-8.715-3.268-13.072-3.268 15.251-10.894 25.055-18.519 25.055-2.179 0-4.357-1.089-6.536-2.179v84.97h263.626v-84.97c-4.357 6.536-8.715 7.626-10.894 7.626zM38.128 593.702c-5.447 0-9.804-4.357-9.804-9.804s4.357-9.804 9.804-9.804c5.447 0 9.804 4.357 9.804 9.804s-4.357 9.804-9.804 9.804zM84.97 593.702c-5.447 0-9.804-4.357-9.804-9.804s4.357-9.804 9.804-9.804c5.447 0 9.804 4.357 9.804 9.804s-4.357 9.804-9.804 9.804zM136.17 593.702c-5.447 0-9.804-4.357-9.804-9.804s4.357-9.804 9.804-9.804 9.804 4.357 9.804 9.804-4.357 9.804-9.804 9.804zM188.46 593.702c-5.447 0-9.804-4.357-9.804-9.804s4.357-9.804 9.804-9.804 9.804 4.357 9.804 9.804-4.357 9.804-9.804 9.804zM236.391 591.523c-3.268 0-5.447-2.179-5.447-5.447s2.179-5.447 5.447-5.447c3.268 0 5.447 2.179 5.447 5.447s-2.179 5.447-5.447 5.447z"></path>
<path fill="rgb(128, 128, 128)" d="M1666.723 656.885h-25.055v-210.247l-96.953 159.047c-1.089 2.179-2.179 3.268-4.357 4.357s-4.357 1.089-5.447 1.089c-4.357 0-7.626-2.179-10.894-5.447l-95.864-159.047v210.247h-25.055v-253.821c0-6.536 3.268-9.804 8.715-11.983 2.179-1.089 5.447-1.089 7.626 0s4.357 3.268 6.536 5.447l108.936 179.745 108.936-179.745c1.089-2.179 3.268-4.357 5.447-5.447s5.447-1.089 7.626 0c2.179 1.089 4.357 2.179 6.536 4.357s2.179 4.357 2.179 7.626v253.821z"></path>
<path fill="rgb(128, 128, 128)" d="M1772.391 382.366v32.681h-25.055v-32.681h25.055zM1747.336 656.885v-187.37h25.055v187.37h-25.055z"></path>
<path fill="rgb(128, 128, 128)" d="M2067.609 512v103.489c0 3.268-1.089 6.536-3.268 8.715-23.966 22.877-56.647 33.77-96.953 33.77-20.698 0-40.306-3.268-56.647-8.715-16.34-6.536-30.502-15.251-42.485-26.145-11.983-11.983-20.698-25.055-26.145-42.485-6.536-16.34-8.715-34.86-8.715-56.647 0-20.698 3.268-39.217 8.715-56.647 6.536-16.34 15.251-30.502 26.145-42.485 11.983-11.983 25.055-20.698 42.485-26.145 16.34-6.536 34.86-8.715 56.647-8.715 34.86 0 64.272 8.715 87.149 26.145l-15.251 19.609c-18.519-14.162-42.485-20.698-71.898-20.698-35.949 0-63.183 9.804-81.702 28.323s-28.323 45.753-28.323 81.702c0 35.949 9.804 63.183 28.323 81.702s45.753 28.323 81.702 28.323c31.591 0 57.736-7.626 76.255-23.966v-90.417l23.966-8.715z"></path>
<path fill="rgb(128, 128, 128)" d="M2281.123 656.885l-64.272-80.613h-61.004v80.613h-18.519v-190.638c0-2.179 1.089-4.357 3.268-6.536s4.357-3.268 6.536-3.268h84.97c7.626 0 15.251 2.179 22.877 5.447 6.536 3.268 13.072 7.626 18.519 13.072s9.804 11.983 11.983 18.519c3.268 7.626 4.357 15.251 4.357 22.877s-1.089 14.162-4.357 20.698c-2.179 6.536-6.536 11.983-10.894 17.43s-9.804 9.804-16.34 13.072c-6.536 3.268-13.072 5.447-19.609 6.536l65.362 81.702h-22.877zM2154.757 557.753h75.166c5.447 0 10.894-1.089 15.251-3.268 5.447-2.179 9.804-5.447 13.072-8.715s6.536-7.626 8.715-13.072c2.179-4.357 3.268-9.804 3.268-16.34 0-5.447-1.089-10.894-3.268-16.34s-5.447-9.804-8.715-13.072c-3.268-3.268-7.626-6.536-13.072-8.715s-9.804-3.268-15.251-3.268h-75.166v82.791z"></path>
<path fill="rgb(128, 128, 128)" d="M2490.281 602.417h-115.472l-26.145 53.379h-20.698l95.864-196.085c2.179-3.268 4.357-5.447 8.715-5.447 3.268 0 6.536 2.179 8.715 5.447l96.953 196.085h-20.698l-27.234-53.379zM2481.566 583.898l-49.021-98.043-49.021 98.043h98.043z"></path>
<path fill="rgb(128, 128, 128)" d="M2724.494 657.974c-3.268 0-5.447-1.089-7.626-4.357l-112.204-160.136v162.315h-18.519v-191.728c0-2.179 1.089-3.268 2.179-5.447s2.179-3.268 4.357-3.268c2.179-1.089 4.357-1.089 5.447 0 2.179 1.089 3.268 2.179 4.357 3.268l112.204 160.136v-161.226h18.519v191.728c0 2.179-1.089 4.357-2.179 5.447s-2.179 3.268-4.357 3.268c0 0 0 0-2.179 0z"></path>
<path fill="rgb(128, 128, 128)" d="M2878.094 656.885h-63.183c-3.268 0-6.536-1.089-8.715-3.268s-3.268-5.447-3.268-8.715v-239.66c0-3.268 1.089-6.536 3.268-8.715s5.447-3.268 8.715-3.268h65.362c20.698 0 39.217 3.268 55.557 8.715s30.502 14.162 41.396 26.145c10.894 10.894 19.609 25.055 26.145 41.396 5.447 16.34 8.715 34.86 8.715 55.557s-3.268 39.217-9.804 54.468c-6.536 16.34-15.251 30.502-27.234 41.396-11.983 11.983-26.145 20.698-42.485 26.145-15.251 6.536-33.77 9.804-54.468 9.804zM2825.804 631.83h51.2c34.86 0 62.094-9.804 80.613-28.323s28.323-44.664 28.323-79.523c0-34.86-8.715-62.094-27.234-79.523-18.519-18.519-44.664-27.234-79.523-27.234h-53.379v214.604z"></path>
<path fill="rgb(128, 128, 128)" d="M3088.34 457.532v199.353h-18.519v-199.353h18.519z"></path>
<path fill="rgb(128, 128, 128)" d="M3299.677 602.417h-115.472l-26.145 53.379h-20.698l95.864-196.085c2.179-3.268 4.357-5.447 8.715-5.447 3.268 0 6.536 2.179 8.715 5.447l96.953 196.085h-20.698l-27.234-53.379zM3290.962 583.898l-49.021-98.043-49.021 98.043h98.043z"></path>
<path fill="rgb(128, 128, 128)" d="M3398.809 656.885h-18.519v-25.055h18.519v25.055z"></path>
<path fill="rgb(128, 128, 128)" d="M3647.183 656.885h-18.519v-159.047l-72.987 119.83c-1.089 1.089-2.179 2.179-3.268 3.268s-3.268 1.089-4.357 1.089-6.536-1.089-7.626-4.357l-72.987-119.83v159.047h-18.519v-192.817c0-4.357 2.179-7.626 6.536-8.715 2.179-1.089 4.357-1.089 5.447 0 2.179 1.089 3.268 2.179 4.357 4.357l81.702 136.17 82.791-136.17c1.089-2.179 2.179-3.268 4.357-4.357s4.357-1.089 5.447 0c2.179 0 3.268 1.089 5.447 3.268 1.089 1.089 2.179 3.268 2.179 5.447v192.817z"></path>
<path fill="rgb(128, 128, 128)" d="M3714.723 656.885h-21.787l75.166-108.936-63.183-90.417h22.877l52.289 74.077 52.289-74.077h22.877l-63.183 90.417 75.166 108.936h-22.877l-64.272-92.596-65.362 92.596z"></path>
</svg>
