<?xml version="1.0" encoding="utf-8"?>
<!-- Generator: Adobe Illustrator 19.1.0, SVG Export Plug-In . SVG Version: 6.00 Build 0)  -->
<svg version="1.1" id="Layer_1" xmlns="http://www.w3.org/2000/svg" xmlns:xlink="http://www.w3.org/1999/xlink" x="0px" y="0px"
	 viewBox="-459 261 40 40" style="enable-background:new -459 261 40 40;" xml:space="preserve">
<style type="text/css">
	.st0{fill:#EE3470;}
	.st1{fill:#FAA41A;}
	.st2{fill:#8C3E96;}
	.st3{fill:#D51C24;}
	.st4{fill:#AED136;}
	.st5{fill:none;stroke:#333333;stroke-miterlimit:10;}
	.st6{fill:none;}
</style>
<g>
	<circle class="st0" cx="-431.9" cy="285.6" r="1.1"/>
	<circle class="st1" cx="-441.8" cy="272" r="1.1"/>
	<circle class="st2" cx="-427.3" cy="279.1" r="1.1"/>
	<circle class="st2" cx="-444.9" cy="294.6" r="1.1"/>
	<circle class="st2" cx="-444.9" cy="265.3" r="1.1"/>
	<circle class="st3" cx="-427.5" cy="289.7" r="1.1"/>
	<circle class="st3" cx="-455.5" cy="282.3" r="1.1"/>
	<circle class="st2" cx="-450" cy="275.4" r="1.1"/>
	<circle class="st1" cx="-451" cy="288.6" r="1.1"/>
	<circle class="st1" cx="-424.9" cy="268.6" r="1.1"/>
	<circle class="st0" cx="-435.9" cy="266.7" r="1.1"/>
	<circle class="st4" cx="-453.5" cy="267.7" r="1.1"/>
	<circle class="st4" cx="-422.5" cy="275" r="1.1"/>
	<circle class="st4" cx="-437.2" cy="293" r="1.1"/>
	<g>
		<path class="st5" d="M-432.5,273.5c6.1-3.2,0.8-8.1,6.7-9.8"/>
		<path class="st5" d="M-432.5,273.5c6.8-1,3.4-7.4,9.5-7.1"/>
		<polygon class="st3" points="-456,286.3 -431.9,273 -442.9,298.3 		"/>
		<polygon class="st4" points="-445.7,280.6 -440.7,293.4 -439.3,290.2 -443.5,279.4 		"/>
		<polygon class="st4" points="-451.2,283.6 -446.8,294.7 -442.9,298.3 -449,282.4 		"/>
		<polygon class="st4" points="-440,277.5 -437.2,285.3 -435.8,282.1 -437.9,276.3 		"/>
		<polygon class="st6" points="-456,286.3 -431.9,273 -442.9,298.3 		"/>
		<line class="st6" x1="-443.4" y1="279.6" x2="-439.4" y2="290"/>
		<line class="st6" x1="-445.5" y1="280.8" x2="-440.8" y2="293.2"/>
		<line class="st6" x1="-437.9" y1="276.7" x2="-435.9" y2="281.9"/>
		<line class="st6" x1="-440" y1="277.8" x2="-437.3" y2="285.1"/>
	</g>
</g>
</svg>
