<?xml version="1.0" encoding="utf-8"?>
<!-- Generator: Adobe Illustrator 19.1.0, SVG Export Plug-In . SVG Version: 6.00 Build 0)  -->
<svg version="1.1" id="Layer_1" xmlns="http://www.w3.org/2000/svg" xmlns:xlink="http://www.w3.org/1999/xlink" x="0px" y="0px"
	 viewBox="-459 261 40 40" style="enable-background:new -459 261 40 40;" xml:space="preserve">
<style type="text/css">
	.st0{fill:#3D9DBF;}
	.st1{fill:#E0DDD5;}
	.st2{fill:#666666;}
	.st3{fill:#47B8D6;}
	.st4{fill:#5ECCE5;}
</style>
<g>
	<path class="st0" d="M-439.3,293.7c-3.4,3.4-9,3.4-12.4,0l0,0c-3.4-3.4-3.4-9,0-12.4l13-13c3.4-3.4,9-3.4,12.4,0l0,0
		c3.4,3.4,3.4,9,0,12.4L-439.3,293.7z"/>
	<circle class="st1" cx="-432.6" cy="274.6" r="6.2"/>
	<g>
		<circle class="st2" cx="-432.8" cy="272.4" r="0.7"/>
		<circle class="st2" cx="-430" cy="275.1" r="0.7"/>
	</g>
	<g>
		<path class="st3" d="M-451.7,281.4c-3.4,3.4-3.4,8.9,0,12.4c3.4,3.4,9,3.4,12.4,0l7.1-7.1L-451.7,281.4z"/>
	</g>
	<g>
		<path class="st4" d="M-451.7,281.3c-3.4,3.4-3.4,9,0,12.4c2.4,2.4,6,3.1,9,2.1l-1.9-21.6L-451.7,281.3z"/>
	</g>
</g>
</svg>
