<svg version="1.1" xmlns="http://www.w3.org/2000/svg" xmlns:xlink="http://www.w3.org/1999/xlink">
<defs>
<symbol id="icon-mi_gran_dia_logo" viewBox="0 0 242 64">
<title>mi_gran_dia_logo</title>
<path fill="#aed136" class="path1 fill-color3" d="M34.791 51.064c1.838 3.404 4.085 5.583 5.447 4.97s1.362-3.677 0.204-7.353l-5.651 2.383z"></path>
<path fill="#aed136" class="path2 fill-color3" d="M32.681 46.366l1.43 3.404c0.068 0.204 0.204 0.408 0.272 0.545l5.719-2.451 0.136 0.34c-0.136-0.477-0.34-0.953-0.545-1.43l-1.226-2.928-5.787 2.519z"></path>
<path fill="#aed136" class="path3 fill-color3" d="M39.887 56.152l0.751-0.322 2.255 5.256-0.751 0.322-2.255-5.256z"></path>
<path fill="#aed136" class="path4 fill-color3" d="M45.889 61.345c-0.749-0.545-2.111-0.613-3.404-0.068s-2.179 1.566-2.315 2.519l5.719-2.451z"></path>
<path fill="#faa41a" class="path5 fill-color4" d="M31.455 51.064c-1.838 3.404-4.085 5.583-5.447 4.97s-1.362-3.677-0.204-7.353l5.651 2.383z"></path>
<path fill="#faa41a" class="path6 fill-color4" d="M33.566 46.366l-1.43 3.404c-0.068 0.204-0.204 0.408-0.272 0.545l-5.719-2.451-0.136 0.34c0.136-0.477 0.34-0.953 0.545-1.43l1.226-2.928 5.787 2.519z"></path>
<path fill="#faa41a" class="path7 fill-color4" d="M24.128 61.429l-0.751-0.321 2.249-5.258 0.751 0.321-2.249 5.258z"></path>
<path fill="#faa41a" class="path8 fill-color4" d="M20.426 61.345c0.749-0.545 2.111-0.613 3.404-0.068s2.179 1.566 2.315 2.519l-5.719-2.451z"></path>
<path fill="#ee3470" class="path9 fill-color5" d="M32.545 2.928l-0.408-0.272c-0.681-0.749-1.566-1.838-2.519-2.247-1.021-0.408-2.315-0.136-3.064 0.681-0.749 0.749-0.613 1.77-0.409 2.792 0 0-0.068 0.272-0.272 0.681-0.409 0.613-1.157 1.157-1.77 1.566s-1.294 0.681-2.043 0.681c-0.613 0-1.226-0.068-1.838-0.136-0.136 0-0.34 0-0.477-0.068l1.43 1.77-0.953 0.409c0 0 0.613 1.157 1.362 1.906 0.681 0.613 1.362 1.226 2.315 1.498 1.226 0.34 2.587 0.204 3.745-0.272 0.34-0.136 0.613-0.34 0.885-0.545 0.749-0.613 1.43-1.362 1.77-2.315 0.272-0.613 0.272-1.294 0.272-1.974s0-1.362-0.068-2.043l2.043-2.111zM25.6 10.281c-0.34 0.068-0.681 0.136-0.953 0.136-0.34 0-0.681-0.068-0.953-0.136-0.204-0.068-0.34-0.272-0.272-0.409 0.068-0.204 0.272-0.34 0.409-0.272 0.477 0.136 1.021 0.136 1.566 0 1.294-0.272 2.247-1.226 2.179-2.179 0-0.204 0.136-0.34 0.34-0.409 0.204 0 0.409 0.136 0.409 0.34 0.136 1.294-1.021 2.519-2.723 2.928zM29.345 2.723c-0.272 0-0.545-0.204-0.545-0.545 0-0.272 0.204-0.545 0.545-0.545 0.272 0 0.477 0.204 0.477 0.545s-0.204 0.545-0.477 0.545z"></path>
<path fill="#8c3e96" class="path10 fill-color1" d="M46.502 6.604c-0.136 0-0.34 0.068-0.477 0.068-0.613 0.068-1.226 0.136-1.838 0.136-0.749-0.068-1.43-0.272-2.043-0.681s-1.43-0.953-1.77-1.566c-0.204-0.34-0.272-0.681-0.272-0.681 0.204-0.953 0.34-1.974-0.408-2.792-0.817-0.817-2.043-1.089-3.064-0.681s-1.838 1.43-2.519 2.247l-0.408 0.272 2.043 2.111c-0.068 0.681-0.068 1.362-0.068 2.043s0 1.362 0.272 1.974c0.34 0.885 1.021 1.702 1.77 2.315 0.272 0.204 0.613 0.409 0.885 0.545 1.157 0.477 2.587 0.545 3.745 0.272 0.953-0.272 1.634-0.817 2.315-1.498 0.749-0.681 1.362-1.906 1.362-1.906l-0.953-0.409 1.43-1.77zM36.902 2.723c-0.272 0-0.545-0.204-0.545-0.545 0-0.272 0.204-0.545 0.545-0.545 0.272 0 0.477 0.204 0.477 0.545 0.068 0.34-0.204 0.545-0.477 0.545zM42.621 10.281c-0.272 0.068-0.613 0.136-0.953 0.136s-0.681-0.068-0.953-0.136c-1.702-0.409-2.86-1.634-2.723-2.928 0-0.204 0.204-0.34 0.408-0.34s0.34 0.204 0.34 0.409c-0.204 0.885 0.749 1.838 2.111 2.111 0.545 0.136 1.089 0.136 1.566 0 0.204-0.068 0.408 0.068 0.408 0.272 0.068 0.204-0.068 0.409-0.204 0.477z"></path>
<path fill="#cfaed3" class="path11 fill-color7" d="M59.711 56.715l-25.26-25.26 25.123-25.396c0.34-0.34 0.34-0.953 0-1.294s-0.953-0.34-1.294 0l-25.123 25.396-25.26-25.26c-0.34-0.34-0.953-0.34-1.294 0s-0.34 0.953 0 1.294l25.26 25.26-25.123 25.396c-0.34 0.34-0.34 0.953 0 1.294 0.204 0.204 0.409 0.272 0.681 0.272 0.204 0 0.477-0.068 0.681-0.272l25.123-25.396 25.26 25.26c0.204 0.204 0.408 0.272 0.681 0.272 0.204 0 0.477-0.068 0.681-0.272 0.204-0.34 0.204-0.953-0.136-1.294z"></path>
<path fill="#ee3470" class="path12 fill-color5" d="M56.715 19.132l1.362 1.43 1.498-1.43v3.132c0 0.885-0.613 1.634-1.362 1.634h-0.272c-0.749 0-1.362-0.749-1.362-1.634v-3.132h0.136z"></path>
<path fill="#ee3470" class="path13 fill-color5" d="M57.94 28.392c-0.204 0-0.408-0.204-0.408-0.409 0-0.272-0.068-0.613-0.136-0.953-0.272-0.885-0.817-1.43-1.226-1.566-0.204-0.068-0.34-0.272-0.34-0.477 0.068-0.204 0.272-0.34 0.477-0.34 0.749 0.204 1.498 1.021 1.838 2.111 0.136 0.409 0.204 0.817 0.204 1.157 0 0.272-0.136 0.409-0.408 0.477 0 0 0 0 0 0z"></path>
<path fill="#ee3470" class="path14 fill-color5" d="M58.077 28.392c0 0 0 0 0 0-0.204 0-0.408-0.204-0.408-0.409 0-0.409 0.068-0.749 0.204-1.157 0.34-1.089 1.089-1.906 1.838-2.111 0.204-0.068 0.408 0.068 0.477 0.34 0.068 0.204-0.068 0.409-0.34 0.477-0.408 0.068-0.953 0.681-1.226 1.566-0.068 0.34-0.136 0.613-0.136 0.953 0 0.136-0.204 0.34-0.408 0.34z"></path>
<path fill="#ee3470" class="path15 fill-color5" d="M58.077 28.528c-0.204 0-0.408-0.204-0.408-0.409v-4.221c0-0.204 0.204-0.409 0.408-0.409s0.408 0.204 0.408 0.409v4.221c0 0.272-0.204 0.409-0.408 0.409z"></path>
<path fill="#aed136" class="path16 fill-color3" d="M63.115 25.123c0.613 0.068 1.294-0.409 1.566-1.157l1.021-2.996-1.838 0.885-0.817-1.77h-0.068l-1.021 2.996c-0.272 0.749-0.068 1.498 0.477 1.906 0 0 0 0 0 0l-1.226 3.608c-0.068 0.204 0 0.409 0.204 0.477 0 0 0 0 0 0s0 0 0 0 0 0 0 0 0.068 0 0.068 0c0 0 0 0 0.068 0 0.136 0 0.34-0.068 0.408-0.272s0.204-0.477 0.408-0.681c0.545-0.749 1.226-1.089 1.634-1.089 0.204 0 0.409-0.136 0.477-0.34 0-0.204-0.136-0.409-0.34-0.477-0.477-0.068-0.953 0.136-1.43 0.477l0.408-1.566c0 0.068 0 0 0 0z"></path>
<path fill="#aed136" class="path17 fill-color3" d="M54.877 28.528c0 0 0 0 0 0 0-0.068 0-0.136 0-0.204l-1.226-3.404c0 0 0 0 0 0 0.545-0.34 0.749-1.089 0.477-1.906l-1.021-2.996h-0.068l-0.817 1.77-1.838-0.885 1.021 2.996c0.272 0.749 0.885 1.226 1.566 1.157 0 0 0 0 0 0.068l0.545 1.566c-0.477-0.34-1.021-0.477-1.43-0.477-0.204 0-0.408 0.204-0.34 0.477 0 0.204 0.204 0.409 0.477 0.34 0.408-0.068 1.089 0.34 1.634 1.089 0.136 0.204 0.272 0.477 0.408 0.681 0.068 0.136 0.204 0.272 0.408 0.272 0.068 0 0.136 0 0.136 0 0.068-0.136 0.136-0.34 0.068-0.545z"></path>
<path fill="#ee3470" class="path18 fill-color5" d="M58.008 28.46c-3.336 0-6.196 0.681-7.557 1.634l0.477 0.272c1.838 0.545 3.745 2.655 4.834 5.515 0 0 0 0 0 0h4.562c1.089-2.928 2.996-5.038 4.834-5.515l0.545-0.204c-1.362-1.021-4.289-1.702-7.694-1.702z"></path>
<path fill="#ee3470" class="path19 fill-color5" d="M56.238 37.515h3.54c0 0 0.068 0 0.068 0 0.068-0.272 0.136-0.545 0.204-0.817h-4.017c0.068 0.34 0.136 0.545 0.204 0.817 0 0 0 0 0 0z"></path>
<path fill="#faa41a" class="path20 fill-color4" d="M59.643 38.4h-3.268c0.136 1.021 0.204 2.043 0.068 2.928h3.132c-0.136-0.885-0.068-1.906 0.068-2.928z"></path>
<path fill="#ee3470" class="path21 fill-color5" d="M15.183 36.494c0 0.338-0.274 0.613-0.613 0.613s-0.613-0.274-0.613-0.613c0-0.338 0.274-0.613 0.613-0.613s0.613 0.274 0.613 0.613z"></path>
<path fill="#c197c7" class="path22 fill-color6" d="M8.306 20.494c0.068-0.068 0.204-0.068 0.272-0.136s0.204-0.068 0.272-0.136h-1.157c0.068 0.136 0.136 0.272 0.204 0.409 0.136-0.068 0.272-0.068 0.409-0.136z"></path>
<path fill="#c197c7" class="path23 fill-color6" d="M11.779 21.379c0-0.613-0.545-1.157-1.157-1.157h-0.817c-0.136 0.068-0.272 0.136-0.409 0.204l-0.068 0.068c-0.204 0.068-0.34 0.204-0.545 0.272-0.068 0.068-0.204 0.068-0.272 0.136-0.34 0.136-0.545 0.204-0.545 0.204s-0.068 0-0.068 0c-0.136 0-0.204 0-0.613-0.817 0 0 0-0.068-0.068-0.068h-1.089c-0.613 0-1.157 0.545-1.157 1.157v0.272h6.74v-0.272z"></path>
<path fill="#8c3e96" class="path24 fill-color1" d="M4.97 22.468h6.74v2.043h-6.74v-2.043z"></path>
<path fill="#c197c7" class="path25 fill-color6" d="M0.272 34.383c0.136 0.068 0.204 0.136 0.34 0.136 0.477 0 1.021-1.021 1.021-2.519 0 0 0 0 0 0s0 0 0-0.068c0-0.136 0.068-0.204 0.204-0.204 0 0 0 0 0 0 0.136 0 0.204 0.068 0.204 0.204 0 0.749 0.136 1.498 0.272 2.043 0.136 0.477 0.34 0.681 0.477 0.681v0c0.068 0 0.136-0.068 0.136-0.068 0.272-0.272 0.613-1.226 0.613-2.655 0-0.068 0-0.136 0.068-0.136 0.068-0.068 0.068-0.068 0.136-0.068h0.204c0.136 0 0.204 0.068 0.204 0.204 0 0.749 0.136 1.498 0.272 2.043 0.136 0.477 0.34 0.681 0.477 0.681v0c0.34 0 0.749-1.089 0.749-2.791 0-0.136 0.068-0.204 0.204-0.204h0.204c0.068 0 0.136 0 0.136 0.068 0.068 0.068 0.068 0.068 0.068 0.136 0 0.749 0.136 1.498 0.272 2.043 0.136 0.477 0.34 0.749 0.477 0.749v0c0.34 0 0.749-1.089 0.749-2.791 0-0.068 0-0.136 0.068-0.136 0.068-0.068 0.068-0.068 0.136-0.068h0.204c0.136 0 0.204 0.068 0.204 0.204 0 0.749 0.136 1.498 0.272 2.043 0.136 0.477 0.34 0.749 0.477 0.749v0c0.34 0 0.749-1.089 0.749-2.791 0-0.068 0-0.136 0.068-0.204s0.136-0.068 0.204-0.068l0.272 0.068c0.068 0 0.136 0.136 0.136 0.204 0 0.749 0.136 1.498 0.272 2.043 0.136 0.477 0.34 0.681 0.477 0.681 0.068 0 0.136-0.068 0.136-0.068 0.272-0.272 0.613-1.226 0.613-2.655 0-0.068 0-0.136 0.068-0.136 0.068-0.068 0.068-0.068 0.136-0.068h0.204c0.136 0 0.204 0.068 0.204 0.204 0 0.749 0.136 1.498 0.272 2.043 0.136 0.477 0.34 0.681 0.477 0.681 0.34 0 0.749-1.089 0.749-2.791 0-0.136 0.068-0.204 0.204-0.204h0.204c0.068 0 0.136 0 0.136 0.068 0.068 0.068 0.068 0.068 0.068 0.136 0 0.749 0.136 1.498 0.272 2.043 0.136 0.477 0.34 0.749 0.477 0.749v0c0.136 0 0.34-0.204 0.477-0.749 0-0.068 0.068-0.136 0.136-0.136v-1.362c0-0.953-0.681-1.702-1.566-1.702h-12.8c-0.885 0-1.566 0.749-1.566 1.702v1.974c0 0 0.068 0 0.068 0.068z"></path>
<path fill="#f8aec6" class="path26 fill-color8" d="M8.987 17.974c0.272-0.272 0.749-0.34 1.089-0.136 0.136 0.068 0.272 0.204 0.34 0.34 0.136 0.272 0.068 0.545 0 0.817-0.204 0.545-0.749 0.817-1.226 1.089-0.272 0.136-0.545 0.272-0.817 0.409-0.34 0.136-0.545 0.204-0.545 0.204-0.068 0-0.34-0.613-0.409-0.681-0.34-0.749-0.545-1.702-0.136-2.451 0.204-0.34 0.545-0.749 0.953-0.545 0.545 0.068 0.613 0.613 0.749 0.953z"></path>
<path fill="#8c3e96" class="path27 fill-color1" d="M12.8 24.783h-8.647c-0.613 0-1.157 0.545-1.157 1.157v4.562h10.962v-4.63c0-0.613-0.477-1.089-1.157-1.089zM5.311 27.983c-0.34 0-0.613-0.272-0.613-0.613s0.272-0.613 0.613-0.613c0.34 0 0.613 0.272 0.613 0.613s-0.272 0.613-0.613 0.613zM8.306 27.983c-0.34 0-0.613-0.272-0.613-0.613s0.272-0.613 0.613-0.613c0.34 0 0.613 0.272 0.613 0.613s-0.272 0.613-0.613 0.613zM11.166 27.983c-0.34 0-0.613-0.272-0.613-0.613s0.272-0.613 0.613-0.613c0.34 0 0.613 0.272 0.613 0.613s-0.272 0.613-0.613 0.613z"></path>
<path fill="#c197c7" class="path28 fill-color6" d="M16.068 34.996c-0.272 0-0.613-0.204-0.885-1.021-0.068-0.272-0.136-0.545-0.204-0.817-0.136 1.021-0.545 1.838-1.089 1.838 0 0 0 0 0 0-0.272 0-0.613-0.204-0.885-1.021-0.068-0.204-0.136-0.477-0.204-0.749-0.136 0.749-0.34 1.294-0.613 1.566-0.136 0.136-0.272 0.204-0.477 0.204-0.272 0-0.613-0.204-0.885-1.021-0.136-0.34-0.204-0.681-0.272-1.089-0.136 1.157-0.545 2.043-1.089 2.043 0 0 0 0 0 0-0.272 0-0.613-0.204-0.885-1.021-0.068-0.204-0.136-0.477-0.204-0.749-0.136 1.021-0.545 1.77-1.089 1.77 0 0 0 0 0 0-0.272 0-0.613-0.204-0.885-1.021-0.068-0.272-0.136-0.545-0.204-0.817-0.136 1.021-0.545 1.838-1.089 1.838 0 0 0 0 0 0-0.272 0-0.613-0.204-0.885-1.021-0.068-0.204-0.136-0.477-0.204-0.749-0.136 0.749-0.34 1.294-0.613 1.566-0.136 0.136-0.272 0.204-0.477 0.204 0 0 0 0 0 0-0.272 0-0.613-0.204-0.885-1.021-0.068-0.272-0.136-0.545-0.204-0.817-0.204 0.953-0.681 1.566-1.157 1.566-0.136 0-0.272-0.068-0.408-0.136v5.311h16.477v-5.311c-0.272 0.408-0.545 0.477-0.681 0.477zM2.383 37.106c-0.34 0-0.613-0.272-0.613-0.613s0.272-0.613 0.613-0.613c0.34 0 0.613 0.272 0.613 0.613s-0.272 0.613-0.613 0.613zM5.311 37.106c-0.34 0-0.613-0.272-0.613-0.613s0.272-0.613 0.613-0.613c0.34 0 0.613 0.272 0.613 0.613s-0.272 0.613-0.613 0.613zM8.511 37.106c-0.34 0-0.613-0.272-0.613-0.613s0.272-0.613 0.613-0.613 0.613 0.272 0.613 0.613-0.272 0.613-0.613 0.613zM11.779 37.106c-0.34 0-0.613-0.272-0.613-0.613s0.272-0.613 0.613-0.613 0.613 0.272 0.613 0.613-0.272 0.613-0.613 0.613zM14.774 36.97c-0.204 0-0.34-0.136-0.34-0.34s0.136-0.34 0.34-0.34c0.204 0 0.34 0.136 0.34 0.34s-0.136 0.34-0.34 0.34z"></path>
<path fill="#808080" class="path29 fill-color2" d="M104.17 41.055h-1.566v-13.14l-6.060 9.94c-0.068 0.136-0.136 0.204-0.272 0.272s-0.272 0.068-0.34 0.068c-0.272 0-0.477-0.136-0.681-0.34l-5.992-9.94v13.14h-1.566v-15.864c0-0.409 0.204-0.613 0.545-0.749 0.136-0.068 0.34-0.068 0.477 0s0.272 0.204 0.409 0.34l6.808 11.234 6.808-11.234c0.068-0.136 0.204-0.272 0.34-0.34s0.34-0.068 0.477 0c0.136 0.068 0.272 0.136 0.409 0.272s0.136 0.272 0.136 0.477v15.864z"></path>
<path fill="#808080" class="path30 fill-color2" d="M110.774 23.898v2.043h-1.566v-2.043h1.566zM109.209 41.055v-11.711h1.566v11.711h-1.566z"></path>
<path fill="#808080" class="path31 fill-color2" d="M129.226 32v6.468c0 0.204-0.068 0.408-0.204 0.545-1.498 1.43-3.54 2.111-6.060 2.111-1.294 0-2.519-0.204-3.54-0.545-1.021-0.408-1.906-0.953-2.655-1.634-0.749-0.749-1.294-1.566-1.634-2.655-0.409-1.021-0.545-2.179-0.545-3.54 0-1.294 0.204-2.451 0.545-3.54 0.409-1.021 0.953-1.906 1.634-2.655 0.749-0.749 1.566-1.294 2.655-1.634 1.021-0.409 2.179-0.545 3.54-0.545 2.179 0 4.017 0.545 5.447 1.634l-0.953 1.226c-1.157-0.885-2.655-1.294-4.494-1.294-2.247 0-3.949 0.613-5.106 1.77s-1.77 2.86-1.77 5.106c0 2.247 0.613 3.949 1.77 5.106s2.86 1.77 5.106 1.77c1.974 0 3.609-0.477 4.766-1.498v-5.651l1.498-0.545z"></path>
<path fill="#808080" class="path32 fill-color2" d="M142.57 41.055l-4.017-5.038h-3.813v5.038h-1.157v-11.915c0-0.136 0.068-0.272 0.204-0.409s0.272-0.204 0.409-0.204h5.311c0.477 0 0.953 0.136 1.43 0.34 0.409 0.204 0.817 0.477 1.157 0.817s0.613 0.749 0.749 1.157c0.204 0.477 0.272 0.953 0.272 1.43s-0.068 0.885-0.272 1.294c-0.136 0.408-0.409 0.749-0.681 1.089s-0.613 0.613-1.021 0.817c-0.409 0.204-0.817 0.34-1.226 0.408l4.085 5.106h-1.43zM134.672 34.86h4.698c0.34 0 0.681-0.068 0.953-0.204 0.34-0.136 0.613-0.34 0.817-0.545s0.409-0.477 0.545-0.817c0.136-0.272 0.204-0.613 0.204-1.021 0-0.34-0.068-0.681-0.204-1.021s-0.34-0.613-0.545-0.817c-0.204-0.204-0.477-0.409-0.817-0.545s-0.613-0.204-0.953-0.204h-4.698v5.174z"></path>
<path fill="#808080" class="path33 fill-color2" d="M155.643 37.651h-7.217l-1.634 3.336h-1.294l5.992-12.255c0.136-0.204 0.272-0.34 0.545-0.34 0.204 0 0.409 0.136 0.545 0.34l6.060 12.255h-1.294l-1.702-3.336zM155.098 36.494l-3.064-6.128-3.064 6.128h6.128z"></path>
<path fill="#808080" class="path34 fill-color2" d="M170.281 41.123c-0.204 0-0.34-0.068-0.477-0.272l-7.013-10.008v10.145h-1.157v-11.983c0-0.136 0.068-0.204 0.136-0.34s0.136-0.204 0.272-0.204c0.136-0.068 0.272-0.068 0.34 0 0.136 0.068 0.204 0.136 0.272 0.204l7.013 10.009v-10.077h1.157v11.983c0 0.136-0.068 0.272-0.136 0.34s-0.136 0.204-0.272 0.204c0 0 0 0-0.136 0z"></path>
<path fill="#808080" class="path35 fill-color2" d="M179.881 41.055h-3.949c-0.204 0-0.409-0.068-0.545-0.204s-0.204-0.34-0.204-0.545v-14.979c0-0.204 0.068-0.409 0.204-0.545s0.34-0.204 0.545-0.204h4.085c1.294 0 2.451 0.204 3.472 0.545s1.906 0.885 2.587 1.634c0.681 0.681 1.226 1.566 1.634 2.587 0.34 1.021 0.545 2.179 0.545 3.472s-0.204 2.451-0.613 3.404c-0.409 1.021-0.953 1.906-1.702 2.587-0.749 0.749-1.634 1.294-2.655 1.634-0.953 0.408-2.111 0.613-3.404 0.613zM176.613 39.489h3.2c2.179 0 3.881-0.613 5.038-1.77s1.77-2.791 1.77-4.97c0-2.179-0.545-3.881-1.702-4.97-1.157-1.157-2.792-1.702-4.97-1.702h-3.336v13.413z"></path>
<path fill="#808080" class="path36 fill-color2" d="M193.021 28.596v12.46h-1.157v-12.46h1.157z"></path>
<path fill="#808080" class="path37 fill-color2" d="M206.23 37.651h-7.217l-1.634 3.336h-1.294l5.992-12.255c0.136-0.204 0.272-0.34 0.545-0.34 0.204 0 0.409 0.136 0.545 0.34l6.060 12.255h-1.294l-1.702-3.336zM205.685 36.494l-3.064-6.128-3.064 6.128h6.128z"></path>
<path fill="#808080" class="path38 fill-color2" d="M212.426 41.055h-1.157v-1.566h1.157v1.566z"></path>
<path fill="#808080" class="path39 fill-color2" d="M227.949 41.055h-1.157v-9.94l-4.562 7.489c-0.068 0.068-0.136 0.136-0.204 0.204s-0.204 0.068-0.272 0.068-0.409-0.068-0.477-0.272l-4.562-7.489v9.94h-1.157v-12.051c0-0.272 0.136-0.477 0.409-0.545 0.136-0.068 0.272-0.068 0.34 0 0.136 0.068 0.204 0.136 0.272 0.272l5.106 8.511 5.174-8.511c0.068-0.136 0.136-0.204 0.272-0.272s0.272-0.068 0.34 0c0.136 0 0.204 0.068 0.34 0.204 0.068 0.068 0.136 0.204 0.136 0.34v12.051z"></path>
<path fill="#808080" class="path40 fill-color2" d="M232.17 41.055h-1.362l4.698-6.809-3.949-5.651h1.43l3.268 4.63 3.268-4.63h1.43l-3.949 5.651 4.698 6.809h-1.43l-4.017-5.787-4.085 5.787z"></path>
</symbol>
</defs>
</svg>
