<?xml version="1.0" encoding="utf-8"?>
<!-- Generator: Adobe Illustrator 19.1.0, SVG Export Plug-In . SVG Version: 6.00 Build 0)  -->
<svg version="1.1" id="Layer_1" xmlns="http://www.w3.org/2000/svg" xmlns:xlink="http://www.w3.org/1999/xlink" x="0px" y="0px"
	 viewBox="-459 261 40 40" style="enable-background:new -459 261 40 40;" xml:space="preserve">
<style type="text/css">
	.st0{fill:#FFE150;}
	.st1{fill:#EE3470;}
	.st2{fill:#F982AD;}
	.st3{fill:#FAA41A;}
</style>
<g>
	<rect x="-440.3" y="272.3" class="st0" width="2.6" height="6.6"/>
	<rect x="-450.1" y="272.3" class="st0" width="2.6" height="6.6"/>
	<rect x="-430.6" y="272.3" class="st0" width="2.6" height="6.6"/>
	<rect x="-456.6" y="278.9" class="st1" width="35.4" height="17.8"/>
	<polygon class="st2" points="-456.8,293 -451,288 -445.2,293 -439,288 -432.9,293 -427.1,288 -421.3,293 -421.3,287.7 
		-427.1,282.8 -432.9,287.7 -439,282.8 -445.2,287.7 -451,282.8 -456.8,287.7 	"/>
	<path class="st3" d="M-437.7,268.2c0,0.7-0.5,1.2-1.2,1.2c-0.7,0-1.2-0.5-1.2-1.2c0-0.7,1.2-3.1,1.2-3.1S-437.7,267.5-437.7,268.2z
		"/>
	<path class="st3" d="M-428,268.2c0,0.7-0.6,1.2-1.2,1.2c-0.7,0-1.2-0.5-1.2-1.2c0-0.7,1.2-3.1,1.2-3.1S-428,267.5-428,268.2z"/>
	<path class="st3" d="M-447.5,268.2c0,0.7-0.5,1.2-1.2,1.2c-0.7,0-1.2-0.5-1.2-1.2c0-0.7,1.2-3.1,1.2-3.1S-447.5,267.5-447.5,268.2z
		"/>
</g>
</svg>
