<?xml version="1.0" encoding="utf-8"?>
<!-- Generator: Adobe Illustrator 19.1.0, SVG Export Plug-In . SVG Version: 6.00 Build 0)  -->
<svg version="1.1" xmlns="http://www.w3.org/2000/svg" xmlns:xlink="http://www.w3.org/1999/xlink" x="0px" y="0px"
	 viewBox="0 0 356 94" preserveAspectRatio="xMidYMin slice" style="enable-background:new 0 0 356 94;" xml:space="preserve">
<style type="text/css">
	.st0{opacity:0.4;}
	.st1{opacity:0.7;}
	.st2{opacity:0.7;fill:#DADADA;}
	.st3{opacity:0.7;fill:#CECECE;}
	.st4{fill:#5ECCE5;}
	.st5{fill:#EE3470;}
	.st6{fill:#8C3E96;}
	.st7{fill:#AED136;}
	.st8{fill:#FAA41A;}
	.st9{fill:#CECECE;}
	.st10{fill:#FFFFFF;}
	.st11{fill:#732F7F;}
	.st12{fill:#D72B6A;}
	.st13{fill:#A6C32C;}
	.st14{fill:#E99213;}
	.st15{fill:#DADADA;}
	.st16{fill:none;stroke:#666666;stroke-miterlimit:10;}
	.st17{fill:none;stroke:#666666;stroke-linecap:round;stroke-miterlimit:10;}
	.st18{fill:#FFFFFF;stroke:#666666;stroke-miterlimit:10;}
	.st19{fill:none;stroke:#FFFFFF;stroke-miterlimit:10;}
	.st20{fill:#666666;}
	.st21{fill:none;stroke:#818181;stroke-width:4;stroke-miterlimit:10;}
	.st22{fill:#CFAED3;}
	.st23{fill:#C197C7;}
	.st24{fill:#F8AEC6;}
	.st25{fill:#808080;stroke:#7D7D7D;stroke-width:0.2898;stroke-miterlimit:10;}
	.st26{fill:none;}
	.st27{fill:none;stroke:#FFFFFF;stroke-linecap:round;stroke-miterlimit:10;}
	.st28{fill:none;stroke:#1A1A1A;stroke-miterlimit:10;}
	.st29{fill:#FFE150;}
	.st30{fill:#F982AD;}
	.st31{fill:#D51C24;}
	.st32{fill:none;stroke:#333333;stroke-miterlimit:10;}
	.st33{fill:#E2921E;}
	.st34{fill:#B5831B;}
	.st35{fill:#3D9DBF;}
	.st36{fill:#E0DDD5;}
	.st37{fill:#47B8D6;}
	.st38{fill:#4D4D4D;}
	.st39{fill:#E0CCB8;}
	.st40{fill:none;stroke:#4D4D4D;stroke-miterlimit:10;}
	.st41{fill:#FFFFFF;fill-opacity:0.9;stroke:#1A1A1A;stroke-miterlimit:10;}
	.st42{fill:#1A1A1A;fill-opacity:0.1;stroke:#1A1A1A;stroke-miterlimit:10;}
	.st43{fill:#FFFFFF;stroke:#1A1A1A;stroke-miterlimit:10;}
</style>
<g id="Layer_2">
</g>
<g id="Layer_5">
</g>
<g id="Layer_1">
	<g>
		<g>
			<g>
				<g>
					<path class="st7" d="M51.1,75c2.7,5,6,8.2,8,7.3c2-0.9,2-5.4,0.3-10.8L51.1,75z"/>
					<path class="st7" d="M48,68.1l2.1,5c0.1,0.3,0.3,0.6,0.4,0.8l8.4-3.6l0.2,0.5c-0.2-0.7-0.5-1.4-0.8-2.1l-1.8-4.3L48,68.1z"/>
				</g>
				
					<rect x="60.2" y="81.9" transform="matrix(0.919 -0.3942 0.3942 0.919 -29.0246 30.9381)" class="st7" width="1.2" height="8.4"/>
				<path class="st7" d="M67.4,90.1c-1.1-0.8-3.1-0.9-5-0.1c-1.9,0.8-3.2,2.3-3.4,3.7L67.4,90.1z"/>
			</g>
			<g>
				<g>
					<path class="st8" d="M46.2,75c-2.7,5-6,8.2-8,7.3c-2-0.9-2-5.4-0.3-10.8L46.2,75z"/>
					<path class="st8" d="M49.3,68.1l-2.1,5c-0.1,0.3-0.3,0.6-0.4,0.8l-8.4-3.6l-0.2,0.5c0.2-0.7,0.5-1.4,0.8-2.1l1.8-4.3L49.3,68.1
						z"/>
				</g>
				
					<rect x="36" y="81.9" transform="matrix(-0.9194 -0.3933 0.3933 -0.9194 36.3254 179.6815)" class="st8" width="1.2" height="8.4"/>
				<path class="st8" d="M30,90.1c1.1-0.8,3.1-0.9,5-0.1c1.9,0.8,3.2,2.3,3.4,3.7L30,90.1z"/>
			</g>
		</g>
		<path class="st5" d="M47.8,4.3l-0.6-0.4c-1-1.1-2.3-2.7-3.7-3.3c-1.5-0.6-3.4-0.2-4.5,1c-1.1,1.1-0.9,2.6-0.6,4.1
			c0,0-0.1,0.4-0.4,1c-0.6,0.9-1.7,1.7-2.6,2.3c-0.9,0.6-1.9,1-3,1c-0.9,0-1.8-0.1-2.7-0.2c-0.2,0-0.5,0-0.7-0.1l2.1,2.6l-1.4,0.6
			c0,0,0.9,1.7,2,2.8c1,0.9,2,1.8,3.4,2.2c1.8,0.5,3.8,0.3,5.5-0.4c0.5-0.2,0.9-0.5,1.3-0.8c1.1-0.9,2.1-2,2.6-3.4
			c0.4-0.9,0.4-1.9,0.4-2.9c0-1,0-2-0.1-3L47.8,4.3z M37.6,15.1c-0.5,0.1-1,0.2-1.4,0.2c-0.5,0-1-0.1-1.4-0.2
			c-0.3-0.1-0.5-0.4-0.4-0.6c0.1-0.3,0.4-0.5,0.6-0.4c0.7,0.2,1.5,0.2,2.3,0c1.9-0.4,3.3-1.8,3.2-3.2c0-0.3,0.2-0.5,0.5-0.6
			c0.3,0,0.6,0.2,0.6,0.5C41.8,12.7,40.1,14.5,37.6,15.1z M43.1,4c-0.4,0-0.8-0.3-0.8-0.8c0-0.4,0.3-0.8,0.8-0.8
			c0.4,0,0.7,0.3,0.7,0.8C43.8,3.7,43.5,4,43.1,4z"/>
		<path class="st6" d="M68.3,9.7c-0.2,0-0.5,0.1-0.7,0.1c-0.9,0.1-1.8,0.2-2.7,0.2c-1.1-0.1-2.1-0.4-3-1c-0.9-0.6-2.1-1.4-2.6-2.3
			c-0.3-0.5-0.4-1-0.4-1c0.3-1.4,0.5-2.9-0.6-4.1c-1.2-1.2-3-1.6-4.5-1c-1.5,0.6-2.7,2.1-3.7,3.3l-0.6,0.4l3,3.1c-0.1,1-0.1,2-0.1,3
			c0,1,0,2,0.4,2.9c0.5,1.3,1.5,2.5,2.6,3.4c0.4,0.3,0.9,0.6,1.3,0.8c1.7,0.7,3.8,0.8,5.5,0.4c1.4-0.4,2.4-1.2,3.4-2.2
			c1.1-1,2-2.8,2-2.8l-1.4-0.6L68.3,9.7z M54.2,4c-0.4,0-0.8-0.3-0.8-0.8c0-0.4,0.3-0.8,0.8-0.8c0.4,0,0.7,0.3,0.7,0.8
			C55,3.7,54.6,4,54.2,4z M62.6,15.1c-0.4,0.1-0.9,0.2-1.4,0.2c-0.5,0-1-0.1-1.4-0.2c-2.5-0.6-4.2-2.4-4-4.3c0-0.3,0.3-0.5,0.6-0.5
			c0.3,0,0.5,0.3,0.5,0.6C56.6,12.2,58,13.6,60,14c0.8,0.2,1.6,0.2,2.3,0c0.3-0.1,0.6,0.1,0.6,0.4C63,14.7,62.8,15,62.6,15.1z"/>
		<path class="st22" d="M87.7,83.3L50.6,46.2L87.5,8.9C88,8.4,88,7.5,87.5,7c-0.5-0.5-1.4-0.5-1.9,0L48.7,44.3L11.6,7.2
			c-0.5-0.5-1.4-0.5-1.9,0c-0.5,0.5-0.5,1.4,0,1.9l37.1,37.1L9.9,83.5c-0.5,0.5-0.5,1.4,0,1.9c0.3,0.3,0.6,0.4,1,0.4
			c0.3,0,0.7-0.1,1-0.4l36.9-37.3l37.1,37.1c0.3,0.3,0.6,0.4,1,0.4c0.3,0,0.7-0.1,1-0.4C88.2,84.7,88.2,83.8,87.7,83.3z"/>
		<g>
			<path class="st5" d="M83.3,28.1l2,2.1l2.2-2.1v4.6c0,1.3-0.9,2.4-2,2.4h-0.4c-1.1,0-2-1.1-2-2.4v-4.6H83.3z"/>
			<path class="st5" d="M85.1,41.7c-0.3,0-0.6-0.3-0.6-0.6c0-0.4-0.1-0.9-0.2-1.4c-0.4-1.3-1.2-2.1-1.8-2.3C82.2,37.3,82,37,82,36.7
				c0.1-0.3,0.4-0.5,0.7-0.5c1.1,0.3,2.2,1.5,2.7,3.1c0.2,0.6,0.3,1.2,0.3,1.7C85.7,41.4,85.5,41.6,85.1,41.7
				C85.1,41.7,85.1,41.7,85.1,41.7z"/>
			<path class="st5" d="M85.3,41.7C85.3,41.7,85.3,41.7,85.3,41.7c-0.3,0-0.6-0.3-0.6-0.6c0-0.6,0.1-1.1,0.3-1.7
				c0.5-1.6,1.6-2.8,2.7-3.1c0.3-0.1,0.6,0.1,0.7,0.5c0.1,0.3-0.1,0.6-0.5,0.7c-0.6,0.1-1.4,1-1.8,2.3c-0.1,0.5-0.2,0.9-0.2,1.4
				C85.9,41.4,85.6,41.7,85.3,41.7z"/>
			<path class="st5" d="M85.3,41.9c-0.3,0-0.6-0.3-0.6-0.6v-6.2c0-0.3,0.3-0.6,0.6-0.6s0.6,0.3,0.6,0.6v6.2
				C85.9,41.7,85.6,41.9,85.3,41.9z"/>
			<path class="st7" d="M92.7,36.9c0.9,0.1,1.9-0.6,2.3-1.7l1.5-4.4l-2.7,1.3l-1.2-2.6l-0.1,0l-1.5,4.4c-0.4,1.1-0.1,2.2,0.7,2.8
				c0,0,0,0,0,0l-1.8,5.3c-0.1,0.3,0,0.6,0.3,0.7c0,0,0,0,0,0c0,0,0,0,0,0c0,0,0,0,0,0c0,0,0.1,0,0.1,0c0,0,0,0,0.1,0
				c0.2,0,0.5-0.1,0.6-0.4c0.1-0.3,0.3-0.7,0.6-1c0.8-1.1,1.8-1.6,2.4-1.6c0.3,0,0.6-0.2,0.7-0.5c0-0.3-0.2-0.6-0.5-0.7
				c-0.7-0.1-1.4,0.2-2.1,0.7L92.7,36.9C92.7,37,92.7,36.9,92.7,36.9z"/>
			<path class="st7" d="M80.6,41.9C80.6,41.9,80.6,41.9,80.6,41.9c0-0.1,0-0.2,0-0.3l-1.8-5c0,0,0,0,0,0c0.8-0.5,1.1-1.6,0.7-2.8
				L78,29.4l-0.1,0l-1.2,2.6l-2.7-1.3l1.5,4.4c0.4,1.1,1.3,1.8,2.3,1.7c0,0,0,0,0,0.1l0.8,2.3c-0.7-0.5-1.5-0.7-2.1-0.7
				c-0.3,0-0.6,0.3-0.5,0.7c0,0.3,0.3,0.6,0.7,0.5c0.6-0.1,1.6,0.5,2.4,1.6c0.2,0.3,0.4,0.7,0.6,1c0.1,0.2,0.3,0.4,0.6,0.4
				c0.1,0,0.2,0,0.2,0C80.6,42.5,80.7,42.2,80.6,41.9z"/>
			<path class="st5" d="M85.2,41.8c-4.9,0-9.1,1-11.1,2.4l0.7,0.4c2.7,0.8,5.5,3.9,7.1,8.1c0,0,0,0,0,0h6.7c1.6-4.3,4.4-7.4,7.1-8.1
				l0.8-0.3C94.5,42.8,90.2,41.8,85.2,41.8z"/>
			<g>
				<path class="st5" d="M82.6,55.1h5.2c0,0,0.1,0,0.1,0c0.1-0.4,0.2-0.8,0.3-1.2h-5.9C82.4,54.4,82.5,54.7,82.6,55.1
					C82.6,55.1,82.6,55.1,82.6,55.1z"/>
				<path class="st8" d="M87.6,56.4h-4.8c0.2,1.5,0.3,3,0.1,4.3h4.6C87.3,59.4,87.4,57.9,87.6,56.4z"/>
			</g>
		</g>
		<circle class="st5" cx="21.4" cy="53.6" r="0.9"/>
		<g>
			<path class="st23" d="M12.2,30.1c0.1-0.1,0.3-0.1,0.4-0.2c0.1-0.1,0.3-0.1,0.4-0.2h-1.7c0.1,0.2,0.2,0.4,0.3,0.6
				C11.8,30.2,12,30.2,12.2,30.1z"/>
			<path class="st23" d="M17.3,31.4c0-0.9-0.8-1.7-1.7-1.7h-1.2c-0.2,0.1-0.4,0.2-0.6,0.3l-0.1,0.1c-0.3,0.1-0.5,0.3-0.8,0.4
				c-0.1,0.1-0.3,0.1-0.4,0.2C12,30.9,11.7,31,11.7,31c0,0-0.1,0-0.1,0c-0.2,0-0.3,0-0.9-1.2c0,0,0-0.1-0.1-0.1h-0.5H9
				c-0.9,0-1.7,0.8-1.7,1.7v0.4h9.9V31.4z"/>
			<rect x="7.3" y="33" class="st6" width="9.9" height="3"/>
			<path class="st23" d="M0.4,50.5c0.2,0.1,0.3,0.2,0.5,0.2c0.7,0,1.5-1.5,1.5-3.7c0,0,0,0,0,0c0,0,0,0,0-0.1c0-0.2,0.1-0.3,0.3-0.3
				c0,0,0,0,0,0c0.2,0,0.3,0.1,0.3,0.3c0,1.1,0.2,2.2,0.4,3c0.2,0.7,0.5,1,0.7,1h0c0.1,0,0.2-0.1,0.2-0.1c0.4-0.4,0.9-1.8,0.9-3.9
				c0-0.1,0-0.2,0.1-0.2c0.1-0.1,0.1-0.1,0.2-0.1l0.3,0c0.2,0,0.3,0.1,0.3,0.3c0,1.1,0.2,2.2,0.4,3c0.2,0.7,0.5,1,0.7,1h0
				c0.5,0,1.1-1.6,1.1-4.1c0-0.2,0.1-0.3,0.3-0.3l0.3,0c0.1,0,0.2,0,0.2,0.1c0.1,0.1,0.1,0.1,0.1,0.2c0,1.1,0.2,2.2,0.4,3
				c0.2,0.7,0.5,1.1,0.7,1.1l0,0c0.5,0,1.1-1.6,1.1-4.1c0-0.1,0-0.2,0.1-0.2c0.1-0.1,0.1-0.1,0.2-0.1l0.3,0h0c0.2,0,0.3,0.1,0.3,0.3
				c0,1.1,0.2,2.2,0.4,3c0.2,0.7,0.5,1.1,0.7,1.1h0c0.5,0,1.1-1.6,1.1-4.1c0-0.1,0-0.2,0.1-0.3c0.1-0.1,0.2-0.1,0.3-0.1l0.4,0.1
				c0.1,0,0.2,0.2,0.2,0.3c0,1.1,0.2,2.2,0.4,3c0.2,0.7,0.5,1,0.7,1c0.1,0,0.2-0.1,0.2-0.1c0.4-0.4,0.9-1.8,0.9-3.9
				c0-0.1,0-0.2,0.1-0.2c0.1-0.1,0.1-0.1,0.2-0.1l0.3,0h0c0.2,0,0.3,0.1,0.3,0.3c0,1.1,0.2,2.2,0.4,3c0.2,0.7,0.5,1,0.7,1
				c0.5,0,1.1-1.6,1.1-4.1c0-0.2,0.1-0.3,0.3-0.3l0.3,0c0.1,0,0.2,0,0.2,0.1c0.1,0.1,0.1,0.1,0.1,0.2c0,1.1,0.2,2.2,0.4,3
				c0.2,0.7,0.5,1.1,0.7,1.1l0,0c0.2,0,0.5-0.3,0.7-1.1c0-0.1,0.1-0.2,0.2-0.2v-2c0-1.4-1-2.5-2.3-2.5H2.6c-1.3,0-2.3,1.1-2.3,2.5
				v2.9C0.3,50.4,0.4,50.4,0.4,50.5z"/>
			<path class="st24" d="M13.2,26.4c0.4-0.4,1.1-0.5,1.6-0.2c0.2,0.1,0.4,0.3,0.5,0.5c0.2,0.4,0.1,0.8,0,1.2
				c-0.3,0.8-1.1,1.2-1.8,1.6c-0.4,0.2-0.8,0.4-1.2,0.6c-0.5,0.2-0.8,0.3-0.8,0.3c-0.1,0-0.5-0.9-0.6-1c-0.5-1.1-0.8-2.5-0.2-3.6
				c0.3-0.5,0.8-1.1,1.4-0.8C12.9,25.1,13,25.9,13.2,26.4z"/>
			<path class="st6" d="M18.8,36.4H6.1c-0.9,0-1.7,0.8-1.7,1.7v6.7h16.1V38C20.5,37.1,19.8,36.4,18.8,36.4z M7.8,41.1
				c-0.5,0-0.9-0.4-0.9-0.9c0-0.5,0.4-0.9,0.9-0.9c0.5,0,0.9,0.4,0.9,0.9C8.7,40.7,8.3,41.1,7.8,41.1z M12.2,41.1
				c-0.5,0-0.9-0.4-0.9-0.9c0-0.5,0.4-0.9,0.9-0.9c0.5,0,0.9,0.4,0.9,0.9C13.1,40.7,12.7,41.1,12.2,41.1z M16.4,41.1
				c-0.5,0-0.9-0.4-0.9-0.9c0-0.5,0.4-0.9,0.9-0.9c0.5,0,0.9,0.4,0.9,0.9C17.3,40.7,16.9,41.1,16.4,41.1z"/>
			<path class="st23" d="M23.6,51.4c-0.4,0-0.9-0.3-1.3-1.5c-0.1-0.4-0.2-0.8-0.3-1.2c-0.2,1.5-0.8,2.7-1.6,2.7c0,0,0,0,0,0
				c-0.4,0-0.9-0.3-1.3-1.5c-0.1-0.3-0.2-0.7-0.3-1.1c-0.2,1.1-0.5,1.9-0.9,2.3c-0.2,0.2-0.4,0.3-0.7,0.3c-0.4,0-0.9-0.3-1.3-1.5
				c-0.2-0.5-0.3-1-0.4-1.6c-0.2,1.7-0.8,3-1.6,3c0,0,0,0,0,0c-0.4,0-0.9-0.3-1.3-1.5c-0.1-0.3-0.2-0.7-0.3-1.1
				c-0.2,1.5-0.8,2.6-1.6,2.6c0,0,0,0,0,0c-0.4,0-0.9-0.3-1.3-1.5c-0.1-0.4-0.2-0.8-0.3-1.2c-0.2,1.5-0.8,2.7-1.6,2.7c0,0,0,0,0,0
				c-0.4,0-0.9-0.3-1.3-1.5c-0.1-0.3-0.2-0.7-0.3-1.1c-0.2,1.1-0.5,1.9-0.9,2.3c-0.2,0.2-0.4,0.3-0.7,0.3c0,0,0,0,0,0
				c-0.4,0-0.9-0.3-1.3-1.5c-0.1-0.4-0.2-0.8-0.3-1.2c-0.3,1.4-1,2.3-1.7,2.3c-0.2,0-0.4-0.1-0.6-0.2v7.8h24.2v-7.8
				C24.2,51.3,23.8,51.4,23.6,51.4z M3.5,54.5c-0.5,0-0.9-0.4-0.9-0.9s0.4-0.9,0.9-0.9c0.5,0,0.9,0.4,0.9,0.9S4,54.5,3.5,54.5z
				 M7.8,54.5c-0.5,0-0.9-0.4-0.9-0.9s0.4-0.9,0.9-0.9c0.5,0,0.9,0.4,0.9,0.9S8.3,54.5,7.8,54.5z M12.5,54.5c-0.5,0-0.9-0.4-0.9-0.9
				s0.4-0.9,0.9-0.9s0.9,0.4,0.9,0.9S13,54.5,12.5,54.5z M17.3,54.5c-0.5,0-0.9-0.4-0.9-0.9s0.4-0.9,0.9-0.9s0.9,0.4,0.9,0.9
				S17.8,54.5,17.3,54.5z M21.7,54.3c-0.3,0-0.5-0.2-0.5-0.5c0-0.3,0.2-0.5,0.5-0.5c0.3,0,0.5,0.2,0.5,0.5
				C22.2,54.1,22,54.3,21.7,54.3z"/>
		</g>
		<g>
			<g>
				<path class="st25" d="M153,60.3h-2.3V41l-8.9,14.6c-0.1,0.2-0.2,0.3-0.4,0.4c-0.2,0.1-0.4,0.1-0.5,0.1c-0.4,0-0.7-0.2-1-0.5
					L131.1,41v19.3h-2.3V37c0-0.6,0.3-0.9,0.8-1.1c0.2-0.1,0.5-0.1,0.7,0c0.2,0.1,0.4,0.3,0.6,0.5l10,16.5l10-16.5
					c0.1-0.2,0.3-0.4,0.5-0.5c0.2-0.1,0.5-0.1,0.7,0c0.2,0.1,0.4,0.2,0.6,0.4c0.2,0.2,0.2,0.4,0.2,0.7V60.3z"/>
				<path class="st25" d="M162.7,35.1v3h-2.3v-3H162.7z M160.4,60.3V43.1h2.3v17.2H160.4z"/>
				<path class="st25" d="M189.8,47v9.5c0,0.3-0.1,0.6-0.3,0.8c-2.2,2.1-5.2,3.1-8.9,3.1c-1.9,0-3.7-0.3-5.2-0.8
					c-1.5-0.6-2.8-1.4-3.9-2.4c-1.1-1.1-1.9-2.3-2.4-3.9c-0.6-1.5-0.8-3.2-0.8-5.2c0-1.9,0.3-3.6,0.8-5.2c0.6-1.5,1.4-2.8,2.4-3.9
					c1.1-1.1,2.3-1.9,3.9-2.4c1.5-0.6,3.2-0.8,5.2-0.8c3.2,0,5.9,0.8,8,2.4l-1.4,1.8c-1.7-1.3-3.9-1.9-6.6-1.9
					c-3.3,0-5.8,0.9-7.5,2.6c-1.7,1.7-2.6,4.2-2.6,7.5c0,3.3,0.9,5.8,2.6,7.5c1.7,1.7,4.2,2.6,7.5,2.6c2.9,0,5.3-0.7,7-2.2v-8.3
					L189.8,47z"/>
				<path class="st25" d="M209.4,60.3l-5.9-7.4h-5.6v7.4h-1.7V42.8c0-0.2,0.1-0.4,0.3-0.6c0.2-0.2,0.4-0.3,0.6-0.3h7.8h0
					c0.7,0,1.4,0.2,2.1,0.5c0.6,0.3,1.2,0.7,1.7,1.2c0.5,0.5,0.9,1.1,1.1,1.7c0.3,0.7,0.4,1.4,0.4,2.1c0,0.7-0.1,1.3-0.4,1.9
					c-0.2,0.6-0.6,1.1-1,1.6c-0.4,0.5-0.9,0.9-1.5,1.2c-0.6,0.3-1.2,0.5-1.8,0.6l6,7.5H209.4z M197.8,51.2h6.9c0.5,0,1-0.1,1.4-0.3
					c0.5-0.2,0.9-0.5,1.2-0.8c0.3-0.3,0.6-0.7,0.8-1.2c0.2-0.4,0.3-0.9,0.3-1.5c0-0.5-0.1-1-0.3-1.5c-0.2-0.5-0.5-0.9-0.8-1.2
					c-0.3-0.3-0.7-0.6-1.2-0.8c-0.5-0.2-0.9-0.3-1.4-0.3h-6.9V51.2z"/>
				<path class="st25" d="M228.6,55.3H218l-2.4,4.9h-1.9l8.8-18c0.2-0.3,0.4-0.5,0.8-0.5c0.3,0,0.6,0.2,0.8,0.5l8.9,18h-1.9
					L228.6,55.3z M227.8,53.6l-4.5-9l-4.5,9H227.8z"/>
				<path class="st25" d="M250.1,60.4c-0.3,0-0.5-0.1-0.7-0.4l-10.3-14.7v14.9h-1.7V42.6c0-0.2,0.1-0.3,0.2-0.5
					c0.1-0.2,0.2-0.3,0.4-0.3c0.2-0.1,0.4-0.1,0.5,0c0.2,0.1,0.3,0.2,0.4,0.3l10.3,14.7V42h1.7v17.6c0,0.2-0.1,0.4-0.2,0.5
					c-0.1,0.1-0.2,0.3-0.4,0.3C250.3,60.4,250.3,60.4,250.1,60.4z"/>
				<path class="st25" d="M264.2,60.3h-5.8c-0.3,0-0.6-0.1-0.8-0.3c-0.2-0.2-0.3-0.5-0.3-0.8v-22c0-0.3,0.1-0.6,0.3-0.8
					c0.2-0.2,0.5-0.3,0.8-0.3h6c1.9,0,3.6,0.3,5.1,0.8c1.5,0.5,2.8,1.3,3.8,2.4c1,1,1.8,2.3,2.4,3.8c0.5,1.5,0.8,3.2,0.8,5.1
					c0,1.9-0.3,3.6-0.9,5c-0.6,1.5-1.4,2.8-2.5,3.8c-1.1,1.1-2.4,1.9-3.9,2.4C267.8,60,266.1,60.3,264.2,60.3z M259.4,58h4.7
					c3.2,0,5.7-0.9,7.4-2.6c1.7-1.7,2.6-4.1,2.6-7.3c0-3.2-0.8-5.7-2.5-7.3c-1.7-1.7-4.1-2.5-7.3-2.5h-4.9V58z"/>
				<path class="st25" d="M283.5,42v18.3h-1.7V42H283.5z"/>
				<path class="st25" d="M302.9,55.3h-10.6l-2.4,4.9H288l8.8-18c0.2-0.3,0.4-0.5,0.8-0.5c0.3,0,0.6,0.2,0.8,0.5l8.9,18h-1.9
					L302.9,55.3z M302.1,53.6l-4.5-9l-4.5,9H302.1z"/>
				<path class="st25" d="M312,60.3h-1.7V58h1.7V60.3z"/>
				<path class="st25" d="M334.8,60.3h-1.7V45.7l-6.7,11c-0.1,0.1-0.2,0.2-0.3,0.3c-0.1,0.1-0.3,0.1-0.4,0.1c-0.3,0-0.6-0.1-0.7-0.4
					l-6.7-11v14.6h-1.7V42.6c0-0.4,0.2-0.7,0.6-0.8c0.2-0.1,0.4-0.1,0.5,0c0.2,0.1,0.3,0.2,0.4,0.4l7.5,12.5l7.6-12.5
					c0.1-0.2,0.2-0.3,0.4-0.4c0.2-0.1,0.4-0.1,0.5,0c0.2,0,0.3,0.1,0.5,0.3c0.1,0.1,0.2,0.3,0.2,0.5V60.3z"/>
				<path class="st25" d="M341,60.3H339l6.9-10l-5.8-8.3h2.1l4.8,6.8l4.8-6.8h2.1l-5.8,8.3l6.9,10h-2.1l-5.9-8.5L341,60.3z"/>
			</g>
		</g>
	</g>
</g>
<g id="Layer_7">
</g>
<g id="Layer_6">
</g>
</svg>
